<?xml version="1.0" encoding="UTF-8" standalone="no"?>
<!-- Created with Inkscape (http://www.inkscape.org/) -->

<svg
   version="1.1"
   id="svg2"
   width="6400"
   height="2666.6667"
   viewBox="0 0 6400 2666.6667"
   sodipodi:docname="vecteezy_background-of-the-topographic-map-vintage-outdoors-style_16828088.eps"
   xmlns:inkscape="http://www.inkscape.org/namespaces/inkscape"
   xmlns:sodipodi="http://sodipodi.sourceforge.net/DTD/sodipodi-0.dtd"
   xmlns="http://www.w3.org/2000/svg"
   xmlns:svg="http://www.w3.org/2000/svg">
  <defs
     id="defs6" />
  <sodipodi:namedview
     id="namedview4"
     pagecolor="#0D0D0D"
     bordercolor="#0D0D0D"
     borderopacity="0.25"
     inkscape:showpageshadow="2"
     inkscape:pageopacity="0.0"
     inkscape:pagecheckerboard="0"
     inkscape:deskcolor="#d1d1d1" />
  <g
     id="g8"
     inkscape:groupmode="layer"
     inkscape:label="ink_ext_XXXXXX"
     transform="matrix(1.3333333,0,0,-1.3333333,0,2666.6667)">
    <g
       id="g10"
       transform="scale(0.1)">
      <path
         d="M 48000,0 H 0 V 20000 H 48000 V 0"
         style="fill:#171717;fill-opacity:1;fill-rule:nonzero;stroke:none"
         id="path12" />
      <path
         d="m 3229.79,-97.5 c -241.96,0 -483.91,0 -725.85,0 -126.3,50.5 -139.34,163.1992 -162.66,271.5 -87.13,404.699 -6.35,791.102 140.21,1169.1 154.29,398 380.63,761.7 604.55,1124.5 377.23,611.2 696.31,1252.5 1063.73,1868.4 257.19,431.2 542.58,840.6 916.38,1191.7 725.08,681 1692.3,784.6 2550.97,256.5 344.31,-211.7 654.22,-465.1 953.33,-732.1 C 9130.39,4552.4 9684,4044.5 10397,3740.6 c 664.5,-283.2 1353.6,-402.3 2081.5,-343 408,33.3 810.7,78.8 1198.7,205 380,123.6 614.7,375.1 693.7,760.1 83.9,409.4 103.9,825.5 151.2,1238.7 94.3,822.7 260.9,1625.1 764.1,2320.5 214,295.8 451.4,573.9 741.6,810.8 281.1,229.5 542.3,484 784,751.9 354.1,392.5 510.5,855.7 543.9,1379.2 49.4,771.9 -258.3,1393.2 -769.3,1952.1 -753.6,824.4 -1419.6,1713.1 -2063,2618.2 -158.2,222.6 -335.1,431.6 -517,636.4 -415,467.7 -963.3,632.7 -1580.8,650.9 -401.7,11.9 -800.5,-32.2 -1200.9,-43.4 -1029.3,-29 -1992.2,209.5 -2923.3,605.1 -162.99,69.2 -328.31,133.5 -491.8,201.6 -859.73,358 -1678.49,303.8 -2472.79,-189.1 -550.72,-341.8 -1117.93,-660.8 -1712.78,-927.5 -467.36,-209.5 -919.77,-449.5 -1395.15,-641.4 -380.48,-153.7 -687.15,28 -771.69,421.8 -103.43,481.9 8.66,936.3 161,1388.4 167.12,495.9 416.17,960.4 599.46,1450.6 110.16,294.6 192.09,596.5 287.41,894.9 27.24,85.2 60.28,160.9 151.68,198.1 356.56,0 713.12,0 1069.68,0 73.05,-53.4 83.7,-129.8 94.22,-211.2 23.51,-181.8 42.72,-365.2 117.11,-537.1 98.75,-228.1 271.12,-342.8 533.35,-339.5 181.53,2.3 359.58,32 522.43,95.6 958.19,374.6 1812.16,161.2 2625.64,-387.1 484.04,-326.2 983.04,-632.5 1507.86,-898.1 878.47,-444.7 1808.47,-546.9 2779.07,-411.1 408.5,57.2 817.4,110.6 1230.7,132.7 568,30.2 987.3,-210.3 1326.5,-627.6 338.2,-416.1 594.1,-882.9 899.8,-1318.9 335.1,-477.9 694.4,-934.9 1138.4,-1327.2 275.3,-243.2 583.3,-434.6 922,-579.8 346.1,-148.3 546.1,-48.5 632.6,305.2 93.4,381.6 125.8,773.8 212.6,1156.3 117.3,516.2 264.2,1023.9 595.3,1458.6 438.4,575.4 1041.7,920.5 1736.1,1139 314.3,98.9 620.5,218.4 907.3,381.2 247.7,140.6 408,345.1 507.7,599.1 135.1,344.4 158,703 148.7,1066.4 -2.8,108.2 -18.1,224.3 90.9,303.5 242,0 483.9,0 725.9,0 71,-52.2 99.9,-128.3 110.9,-207.3 72.5,-520.9 184,-1037.8 173.2,-1567.6 -4.6,-224 -60,-435.1 -140,-643.4 -143.6,-374 -479.6,-506.3 -832.9,-604.5 -348.7,-97 -713.7,-122 -1069,-191.6 -280.7,-55.1 -562.1,-109.7 -818.6,-240.3 -629.7,-320.7 -996.6,-812 -1081.3,-1501.7 -55.2,-449.9 -3.9,-869.5 295.8,-1232.6 185.3,-224.5 432.8,-379.4 706.6,-486.8 518.7,-203.5 1064.6,-335.3 1580.7,-546.3 293.2,-119.8 578.9,-253.7 839.1,-433.7 605.5,-419 800,-1003.1 730.9,-1690.2 -79.8,-793.6 -298.1,-1564.6 -419.8,-2351.6 -86.2,-556.7 -140,-1117.4 -239.3,-1672.6 C 22655.8,5809.6 22232.3,5035 21627.5,4341.8 21149.3,3793.6 20610.4,3313 19962.3,2955.2 c -554.6,-306.2 -1154.7,-467.8 -1790,-537.1 -529.2,-57.8 -1053.6,37.9 -1580.9,6.2 -332.5,-19.9 -624.9,-100.8 -757.9,-423.9 -81.9,-199.1 -97.3,-417.6 -82.5,-632.8 29.3,-428.698 99.6,-850.897 233.6,-1262.1 23.5,-71.8984 37.6,-144.5 -33.3,-203 -203.8,0 -407.5,0 -611.3,0 -92.8,63.5 -134.4,156.3008 -171.3,256.5 -172,467.402 -310.6,945 -486.6,1411.8 -269.4,714.9 -838,990.3 -1563.4,1072.1 -574.2,64.8 -1154.9,62.6 -1725.9,163.1 -1025,180.4 -1902.07,636 -2673.77,1299.9 -331.54,285.2 -651.66,583.6 -1013.64,835.8 -203.05,141.4 -421.93,251.4 -651.56,342.7 C 6443.39,5527.2 5936,5322.9 5478.32,4933.9 5198.06,4695.7 4993.13,4397.1 4817.5,4084.6 4274.64,3118.7 3842.32,2104.9 3455.36,1073.6 3344.9,779.203 3301.03,467.602 3317.43,151.402 3322.27,58.1016 3318.39,-34 3229.79,-97.5 Z"
         style="fill:none;stroke:#0D0D0D;stroke-width:40;stroke-linecap:butt;stroke-linejoin:miter;stroke-miterlimit:4;stroke-dasharray:none;stroke-opacity:1"
         id="path14" />
      <path
         d="m 15951.3,-97.5 c -170.9,477.199 -280.9,969.301 -293.3,1471.9 -8.4,335.2 -17.5,684.4 296,946.2 181.4,151.5 386.2,182.8 600.2,188 406.4,9.8 814.6,-29.5 1218.7,-23.2 831.8,12.8 1623.1,210.8 2330.6,656.5 928.8,585.1 1651.6,1354.4 2176.6,2292 331,591.2 465.5,1241.8 540.4,1901.3 100.2,882.7 266.2,1754 439.8,2625 83.4,418.6 177.8,838.8 120,1272.4 -82.7,620.2 -449.7,1030.7 -1008.7,1313.9 -572.3,290.1 -1187.3,470 -1796.5,665.7 -280,89.9 -537.4,214.9 -775.1,386 -491,353.2 -621.1,845.1 -588.4,1395.5 9.6,162.5 29,328.2 80.7,488 265.7,822.1 873.5,1264.9 1721.5,1436.2 354.5,71.7 713.2,124.1 1069.8,185.8 43.8,7.6 87.6,16.1 130.4,27.6 683.2,183.4 892.1,387.9 952.5,1164.3 40.5,521.3 -99.8,1032.6 -162.8,1548 -9.6,78.7 -15.5,157.9 -23.1,236.9 292.8,0 585.7,0 878.6,0 120.1,-52 145.4,-157.3 172.6,-267.5 129.5,-524.4 277.6,-1043.2 520.5,-1532.2 43.9,-88.5 91,-175.4 149.4,-255.6 381.9,-525.1 711.6,-651.8 1595.7,-472.6 431.3,87.4 828.3,275 1223.9,458.5 589.6,273.4 1159.5,586.9 1785.7,785 554.8,175.5 1124.8,241.9 1705,275.5 462,26.7 927.3,15.8 1385.6,102.4 446.2,84.3 775,296.7 921.5,727.5 24.6,72.3 72.7,128.2 129,179 356.5,0 713.1,0 1069.7,0 79.9,-57.6 125.2,-131.2 139.6,-229.1 65.7,-448 160,-892 145.3,-1349 -14.6,-456.5 -248.7,-685.2 -726.8,-677.6 -378.4,6 -741,108.5 -1108,182.2 -710.4,142.8 -1419.5,272.3 -2153,262.4 -723.3,-9.7 -1403.1,-178.5 -2042.9,-475.7 -1078.4,-501 -2102.5,-1096.9 -3094.3,-1742.9 -406.6,-264.9 -594,-665 -686.3,-1106.8 -127.9,-612.5 -111.6,-1230.7 3.2,-1843.4 91.6,-488.6 349.7,-901.8 680.1,-1276.7 189.2,-214.7 381.5,-426.8 568.6,-643.3 544.6,-629.9 894.5,-1363.4 1219.7,-2110.8 287.4,-660.8 582,-1318.8 899.1,-1966.9 203.4,-415.9 426.5,-822.9 714.5,-1191.5 440.9,-564.2 1060.9,-820.1 1764.4,-919.1 422.1,-59.5 847.1,-90.3 1274.3,-75.2 229.9,8.2 457.1,-17.3 684.9,-40.3 277.3,-27.9 492.6,-261.7 464.7,-529.1 C 33204,3766.2 33065,3201.9 32844.3,2656.2 32534.9,1891 31940.6,1349.6 31308.5,838.402 30952.6,550.602 30559.2,310.5 30186,44.6016 30085.9,-26.6992 29963.6,-43.8008 29857,-97.5 c -420.2,0 -840.4,0 -1260.7,0 -60.9,103.80078 25.8,158.3008 82.8,219.398 298.1,319.204 685.1,524.903 1050.9,757.602 579.6,368.8 1158.6,738 1542,1319.8 69,104.8 122.7,215.4 158,332.9 140.6,467.4 -6.3,802.6 -457.8,1048.5 -273.4,148.9 -577.1,225.8 -869.2,329.9 -588.4,209.8 -1123.9,492.7 -1502.1,994.7 -270.2,358.8 -481,750.5 -663.8,1155.4 -415.7,920.8 -784.4,1861.6 -1254.7,2759.1 -244.5,466.5 -530.7,907.8 -943.4,1259.4 -177.9,151.6 -365.9,279.7 -608.9,325 -288.6,53.9 -512.6,-37.4 -693.4,-247.5 -172.3,-200.1 -293.2,-426.9 -386.8,-671 -231.1,-602.7 -335.6,-1230.2 -404.3,-1864.5 -86.3,-795.4 -214.3,-1579.6 -609.5,-2298.4 -242.3,-440.8 -540.2,-846.3 -892.6,-1210 -503.4,-519.7 -1027.2,-1019.5 -1632.5,-1433.9 -662.3,-453.5 -1396.2,-752.3 -2176.4,-955.3 -294.8,-76.8 -595.4,-132.6 -884.6,-230 -552.5,-186.2 -735.2,-543.799 -692.3,-1083.198 8.2,-103.699 21.9,-207.203 48.3,-308.402 19.9,-76.0977 18.1,-146 -52.5,-199.5 -267.4,0 -534.8,0 -802.2,0 z"
         style="fill:none;stroke:#0D0D0D;stroke-width:40;stroke-linecap:butt;stroke-linejoin:miter;stroke-miterlimit:4;stroke-dasharray:none;stroke-opacity:1"
         id="path16" />
      <path
         d="m 2656.74,20080.5 c -194.45,-796 -522.23,-1545.7 -843.47,-2299.3 -178.08,-417.7 -329.27,-851.7 -301.06,-1317 9.96,-164.2 19.62,-331.4 104.91,-480.5 127.75,-223.4 300.9,-292 540.87,-185.9 1063.75,470.4 2121.23,953.4 3110.99,1560.4 500.32,306.9 1030.76,496.5 1638.5,445.9 400.64,-33.3 768.5,-162.8 1130.83,-313.6 690.18,-287.2 1384.31,-559.6 2136.59,-661.7 563.4,-76.6 1126.7,-65.1 1692.8,-32.6 592.3,34.1 1188.8,48 1722.1,-268.3 387,-229.5 666.1,-567.4 916.8,-921.7 752.3,-1063 1563.8,-2082 2423.8,-3065.7 700.8,-801.6 702.8,-2297.4 1.5,-3057.3 -265.8,-287.9 -546.6,-566.1 -845.2,-822.2 -605.2,-519 -1026,-1141.1 -1246.8,-1892.8 -188.2,-640.4 -228.5,-1300 -304.3,-1955.7 -44.1,-381.2 -61.8,-775 -402.1,-1056.4 -122.4,-101.2 -247.4,-191.4 -404,-235.4 -1651.9,-464 -3166.2,-260 -4502.87,843.9 -477.04,393.9 -914.63,830.7 -1423.05,1190.8 -378.93,268.4 -795.33,449.2 -1262.16,475.7 -522.1,29.7 -965.43,-181.3 -1348.99,-510.9 C 4734.06,5126.4 4411.5,4632.4 4130.91,4116.9 3676.36,3281.9 3180.73,2469 2718.68,1638.2 2539.21,1315.5 2432.32,968.602 2399.37,606.402 2377.71,368.5 2434.28,132.5 2503.94,-97.5 c -280.16,0 -560.31,0 -840.46,0 -107.25,48.9023 -152.3,136 -180.16,243.5 -131.15,506 -35.24,982.1 188.64,1444.9 186.29,385.1 422.03,741.2 689.34,1077.1 547.04,687.2 995.97,1434.6 1459.7,2173.3 260.02,414.2 535.91,816.5 898.14,1159.5 727.61,689.2 1749.56,856.1 2676.17,434.6 543.06,-247.1 990.67,-616.3 1427.34,-1002 360.58,-318.4 713.69,-644.8 1122.63,-908.9 523.12,-337.8 1090.92,-574.5 1722.42,-588.8 961,-21.8 1777.7,273.9 2106.5,1307.4 182.8,574.3 294.7,1165.6 469.8,1741.7 230.8,759.3 621,1430.2 1164.2,2022.7 218.6,238.4 438.3,476 647.9,722.4 571.7,672 577.5,1397.3 226.4,2152.6 -169.3,363.9 -407.8,692.2 -643,1019.3 -488.6,679.5 -946.1,1379.7 -1463.6,2040 -187.7,239.4 -384.8,470.2 -617.9,672.8 -490.4,426.3 -1090.7,533.4 -1717.2,551.2 -527.9,15 -1056.5,7.7 -1584.7,2 -593.31,-6.3 -1178.71,79.9 -1767,130 -686.45,58.5 -1347.31,20.9 -1942.86,-365.2 -601.45,-389.9 -1200.85,-782 -1780.58,-1202 -744.95,-539.7 -1095.97,-1277 -1216.46,-2145.4 -104.25,-751.5 -163.04,-1510 -343.65,-2250.4 C 3046.6,9683.2 2806.89,9068.8 2286.24,8592.1 1936.65,8272 1505.2,8090.6 1064.22,7929.9 766.797,7821.5 453.074,7760.8 146.891,7678 c -92.4027,-25 -175.6879,-28.6 -240.7387,53.1 0,306.3 0,612.6 0,918.8 106.961,126.3 257.2657,88.2 391.9727,86.9 491.117,-4.4 925.725,158.2 1319.745,420.9 443.32,295.6 645.93,747.2 786.72,1225 194.36,659.6 201.05,1328.7 69.78,2000.2 -143.21,732.5 -394.16,1431.1 -721.93,2105.2 -16.19,33.3 -33.8,65.9 -52.08,98.2 -155.32,273.9 -320.52,313.3 -586.92,127.5 -274.51,-191.5 -509.741,-423.8 -714.206,-683.6 -99.914,-127 -205.023,-249.8 -305.8356,-376 -46.7656,-58.6 -92.496056,-123.8 -187.2461,-79.2 0,2125.8 0.2618,4251.7 -1.0039,6377.5 -0.0507,80.9 -14.2424,161.3 115.6133,128 86.7263,-53.6 150.4333,-126.3 208.8083,-208.2 221.5,-310.6 557.907,-343.5 860.77,-87.8 123.07,103.9 220.61,238.1 382.12,296 394.76,0 789.52,0 1184.28,0 z"
         style="fill:none;stroke:#0D0D0D;stroke-width:40;stroke-linecap:butt;stroke-linejoin:miter;stroke-miterlimit:4;stroke-dasharray:none;stroke-opacity:1"
         id="path18" />
      <path
         d="m 29857,-97.5 c 366.6,314.5 792.8,551.801 1178.1,842 572.9,431.6 1118.7,889.4 1493.5,1503.1 351.4,575.4 499.9,1213.4 612.7,1861.9 10.4,60.2 14,121.5 24.2,181.7 45.8,270.8 -129.5,469.7 -412.5,501.8 -619.4,70.3 -1243.3,18.3 -1864.2,96.8 -1028.2,129.9 -1762.5,621.3 -2251,1501 -523,941.6 -945.9,1925.3 -1375.9,2906 -367.2,837.3 -841.9,1602.1 -1484.7,2271.7 -459.7,478.9 -820.3,1013.2 -908,1682.5 -77.6,592.6 -87.7,1185.1 39.4,1770.7 118.6,546.4 433.7,966.5 935.4,1261.9 873.7,514.3 1744.9,1031.9 2653.2,1489.3 1144.8,576.5 2353.3,713.4 3613.6,487.3 593.9,-106.5 1184.6,-229.8 1779.5,-330.6 236,-40 479.7,-65.5 671,147.5 103.8,115.6 143.4,237.7 148.5,383.9 19.1,549.2 -102,1082.5 -192,1619.5 369.2,0 738.5,0 1107.8,0 239.2,-156 309.6,-427.8 472.1,-636.7 589.4,-757.8 885.7,-1647.7 1225.2,-2518.7 216.7,-556.2 467.7,-1099 743.3,-1630.6 372.5,-718.7 722.5,-1446 935.5,-2226.6 150.4,-551.3 234.7,-1115.4 346.7,-1674.2 88.2,-439.8 204.6,-870.5 445.8,-1262.7 205.4,-334.1 503.9,-562.4 850.7,-742.6 280.2,-145.6 569.1,-274.6 861.9,-394.2 674.5,-275.6 1048.2,-764.6 1160.2,-1456.7 96,-593 141,-1190.4 196.7,-1787.2 97,-1039.9 240.1,-2068.9 752.5,-3014.4 291.3,-537.7 689.3,-996.8 1104.9,-1445.5 355.3,-383.4 728.4,-751.9 1054.7,-1159.998 55.7,-69.6012 117.4,-134.80044 49.9,-227.902 -369.3,0 -738.6,0 -1107.8,0 -75.6,44.6992 -151.3,85.4023 -192.5,170.3008 C 44252.9,635.602 43871.6,1136.1 43536,1662.8 42964.6,2559.6 42647.8,3539 42482.9,4573 c -126.2,791.6 -194.2,1592.2 -407.9,2370.7 -151.9,553.6 -475.3,979.8 -962.1,1300.5 -310.3,204.5 -644.5,370 -966.3,555.6 -783.4,452.1 -1180.1,1138.4 -1327.5,1984.2 -102,585.2 -168.1,1175.8 -291.7,1757.9 -188.6,888.1 -575.4,1694.5 -1062.7,2463.2 -265.9,419.5 -561,817.3 -897.1,1186.2 -253,277.7 -538.7,523.1 -882.8,692.1 -415,203.9 -694.9,113.5 -918.7,-280.3 -100.8,-177.2 -190.2,-360 -290.9,-537.5 -368.8,-650.1 -730.8,-1301.8 -944,-2021.8 -229.1,-773.7 -223.9,-1544.4 -47.4,-2323.2 126.4,-558.1 325,-1094.1 522.9,-1630.6 198.1,-537.3 386.3,-1078.7 436.5,-1650.2 29.7,-337.5 -42,-670.4 -135.9,-995.7 -153.2,-531.4 -372.4,-1041.8 -543.1,-1567.8 -53.2,-164 -99.9,-329 -129.4,-498.3 -47.7,-273.5 60.8,-441 342.8,-499.3 462.3,-95.6 911.3,-226.4 1337.2,-425.9 1096,-513.4 1700.3,-1362.1 1858.3,-2517.5 79,-578.3 78.1,-1159.101 72.2,-1740.398 -1.2,-116.9997 -33.4,-216.8004 -129.8,-292.402 -165.5,0 -331.1,0 -496.6,0 -94.9,70.9023 -82.2,166.6016 -76.8,267.301 32.1,592.301 67.7,1185.799 -59,1772.699 -98.6,457.1 -264.5,892.1 -641.9,1204 -574.6,475 -1144.7,501.7 -1655.6,89.7 -196.8,-158.7 -335.8,-369.9 -457.6,-583.7 -621.3,-1091 -1550.2,-1895.398 -2588.7,-2600.3984 -111.4,-75.6993 -244.2,-98.5 -365.4,-149.6016 -305.6,0 -611.3,0 -916.9,0 z"
         style="fill:none;stroke:#0D0D0D;stroke-width:40;stroke-linecap:butt;stroke-linejoin:miter;stroke-miterlimit:4;stroke-dasharray:none;stroke-opacity:1"
         id="path20" />
      <path
         d="m 45825.7,-97.5 c -230.2,347.301 -528.5,641 -812.7,945 -578.4,618.6 -1175.5,1220.9 -1553.5,1986.2 -346.1,700.8 -515,1443.8 -614.1,2207.1 -102.3,788.2 -147.1,1581.6 -250.3,2370.4 -108.3,827 -578.5,1323.7 -1363,1607.5 -356.6,129 -697,299.4 -1007.2,519.2 -478.2,338.7 -703.7,824.5 -854.4,1353 -180.5,632.7 -243.1,1288.4 -403.1,1925.7 -136.5,543.7 -307.2,1077.4 -563.6,1577.7 -642.2,1253.5 -1209.6,2536.2 -1705.1,3849.7 -177.3,469.8 -504.2,862.9 -768.3,1287.9 -110.6,178 -239.6,347 -304.8,548.6 1260.7,0 2521.4,0 3782.1,0 32.6,-98.3 -39.8,-130 -111.4,-160 -140.2,-58.8 -270.3,-139.6 -412.7,-191.1 -532,-192.2 -737.7,-613.5 -832,-1102.9 -162.9,-845.7 -17,-1667.7 240.6,-2477.1 186.8,-586.8 451.3,-1144.3 705.4,-1705.4 386.3,-853 603.7,-1752.6 808.4,-2656.6 105,-463.6 254.4,-916 569.8,-1290.2 275.2,-326.4 659.6,-487.9 1088.6,-493.7 405.7,-5.4 669.4,225.5 823.1,580.3 189.3,436.9 300.5,896.6 434.1,1349.9 298.3,1013.1 568.1,2033.4 831.3,3055.2 243.2,944.6 802.4,1665 1639.3,2197.1 238.8,151.8 473.5,309.2 698.1,480.7 507.6,387.7 686.8,893.5 587.6,1498.7 -35.7,217.5 -85.3,432.7 -151.2,644.5 -28.4,91.3 -68.8,191.2 33.9,270.6 229.2,0 458.4,0 687.6,0 84.7,-50.4 136.9,-121.6 167.9,-213.7 133.7,-396.8 258.5,-797.2 292.7,-1214.1 30.1,-367.7 -115.6,-695.3 -313.5,-1003 -147.1,-228.5 -350.3,-400.3 -577.3,-552.4 -438.5,-293.8 -907,-543.8 -1327.6,-864.6 -443.4,-338.3 -760.1,-764.4 -933.9,-1272.8 -389.9,-1141 -713,-2300.6 -907.7,-3488.6 -54.2,-330.1 -63.9,-665.4 -25.8,-1005.6 53.6,-478.3 321.3,-785.7 736.2,-1002.1 286.3,-149.4 598.5,-242 901.8,-351.9 574.4,-208.2 1102.5,-495.7 1525.4,-919.1 651.5,-652.2 1153.4,-1401.1 1386,-2291.9 62.9,-240.4 62.6,-491.4 68.1,-738.9 19.1,-861.6 -56.8,-1718.7 -123.6,-2577.1 -36.5,-469.1 49.5,-936.8 162.8,-1395.9 0,-391.999 -3.5,-784.101 2.6,-1175.9992 1.4,-92.1016 -21.7,-113.4028 -117.2,-112.8008 -713.1,4.5 -1426.3,2.5 -2139.4,2.5 z"
         style="fill:none;stroke:#0D0D0D;stroke-width:40;stroke-linecap:butt;stroke-linejoin:miter;stroke-miterlimit:4;stroke-dasharray:none;stroke-opacity:1"
         id="path22" />
      <path
         d="m -93.8477,159.699 c 0,122.5 0,245.102 0,367.602 36.8594,173.101 30.1719,350.101 44.6329,524.999 45.74605,553.2 308.4028,1025.4 591.9098,1487.1 364.239,593 865.825,1086.3 1310.225,1621.1 460.63,554.3 839.14,1151.7 1053.05,1837.4 51.67,165.6 85.16,332.8 89.25,505 3.45,145.3 -76.47,229.2 -223.73,250.4 -88.25,12.7 -179.33,15.6 -266.6,1 C 1782.91,6633 1093.82,6431 507.477,5983.7 367.395,5876.8 252.125,5744.7 120.328,5629.5 60.6055,5577.3 3.69922,5507 -93.8477,5562.6 c 0,404.3 0,808.6 0,1212.9 64.5938,168.7 212.3597,251.8 364.9767,331.6 409.652,214.1 855.291,347.7 1278.761,530.9 197.46,85.4 390.27,179 579.47,280.5 641.74,344.1 946.79,921.1 1157.94,1558.1 236.31,713 357.21,1453.3 524.76,2181.9 242.27,1053.6 823.6,1854.9 1786.06,2404.6 705.58,403 1423.19,786 2130.2,1186.7 536.88,304.3 1133.89,436 1744.14,499 694.74,71.8 1392.34,134 2092.14,116.1 374,-9.6 748,-45.9 1106.6,-170.6 496.5,-172.8 874.6,-497.7 1203.4,-876.4 643.4,-741 1138.4,-1577.3 1621.9,-2418.1 197.2,-342.9 339.2,-709.9 404.6,-1103 82.7,-496.8 -33.2,-947.6 -302.7,-1368.7 -290.3,-453.5 -641.8,-867.5 -923.9,-1326.8 -376,-612.2 -599.4,-1281.1 -809.4,-1956.6 -154.8,-497.6 -270.8,-1012.3 -566.4,-1456.9 -445.7,-670.7 -1040.9,-993.7 -1959,-900.8 -763.6,77.3 -1367.96,463.8 -1932.5,925.1 -436.01,356.2 -843.3,744.5 -1306.64,1070.4 -585.49,411.9 -1222.9,672.3 -1962.17,662 C 5280.93,6932.5 4606.94,6595.4 4119.85,5912.4 3748.66,5391.9 3436.03,4836.9 3085.6,4304.2 2655.42,3650.1 2112.84,3078.9 1642.11,2455.2 1298.93,2000.5 1023.52,1513.2 908.523,955.102 852.172,681.703 863.125,406.801 919.902,134.398 938.512,45.1016 946.598,-35.5 861.223,-97.5 c -305.621,0 -611.246,0 -916.8675,0 -50.8785,80.5 12.6718,176.7031 -38.2032,257.199 z"
         style="fill:none;stroke:#0D0D0D;stroke-width:40;stroke-linecap:butt;stroke-linejoin:miter;stroke-miterlimit:4;stroke-dasharray:none;stroke-opacity:1"
         id="path24" />
      <path
         d="M 861.223,-97.5 C 798.926,246.602 739.566,592.402 808.102,940.902 935.445,1588.4 1269.17,2141.4 1680.55,2656.2 c 476.49,596.3 990.46,1165.7 1400.5,1809.7 295.73,464.4 595.87,926.2 888.16,1392.6 836,1334 2510.15,1451 3724.22,785.5 534.42,-292.9 989.96,-684 1439.02,-1082.3 465.09,-412.4 951.15,-798.9 1546.65,-1024.5 692.8,-262.5 1381.4,-284.8 2018.8,144.2 393.4,264.8 631.2,650.5 780.9,1083.4 138.5,400.7 273.2,803.1 391.8,1209.6 262.9,900.9 690.4,1719 1272.1,2469 268.8,346.6 536.6,698.9 643.7,1136.8 118.4,484.3 21.5,943.3 -184.7,1377 -485.8,1022.2 -1098.8,1973.9 -1835.4,2846 -485.6,575 -1108.8,921.6 -1903.6,947.4 -1205.1,39.1 -2401.35,1.8 -3562.89,-350 -415.83,-126 -776.1,-364.2 -1145.93,-579.9 -549.22,-320.4 -1123.82,-598 -1665.01,-932.7 C 4676.52,13385.6 4178.13,12683.8 3944.86,11784.9 3747.56,11024.6 3616.87,10250.4 3395.8,9495 3121.24,8556.6 2535.25,7909.6 1588.06,7549.6 1010.04,7330 411.195,7144.9 -93.8477,6775.5 c 0,318.5 0,637 0,955.6 861.8167,179.7 1721.5777,371.6 2381.6777,991.1 393.44,369.2 600.99,844.1 747.37,1345.8 191.66,656.8 264.01,1332.5 348.66,2006.6 49.58,394.7 107.4,788.3 210.68,1174.8 185.15,692.8 629.76,1209.1 1209.3,1624.8 591.6,424.4 1192.74,837.4 1822.69,1208.6 360.16,212.3 754.76,314.1 1178.77,323.8 663.67,15.1 1316.46,-106.3 1975.54,-135.5 609.96,-27 1221.96,-14.3 1833.06,-11.4 300.2,1.5 596.1,-28.6 892.1,-69.5 600.9,-83 1070.1,-390.1 1438.6,-830.2 843.7,-1007.3 1569.5,-2095 2287.3,-3186.6 344.3,-523.6 454.8,-1099.6 328,-1709.4 -76.2,-366.2 -307.3,-653.7 -550.8,-931.2 -413.5,-471.4 -864.6,-912.8 -1185.1,-1456.2 -253.9,-430.3 -424.3,-888.5 -559.6,-1362 -150.1,-525.4 -245.8,-1064.3 -429,-1581.5 -274.3,-774.5 -849.6,-1167 -1681.3,-1264.6 -1038.6,-121.8 -1887.8,268 -2663.93,872.4 C 8947,5164 8474.42,5665.7 7899.18,6053.8 7433.96,6367.7 6921.54,6577.9 6356.8,6580.2 5788.75,6582.5 5274.63,6384.5 4850.25,6001.5 4384.05,5580.7 4057.98,5061.8 3743.5,4536.5 3263.06,3734.1 2714.57,2976.1 2154.26,2224.8 c -200.78,-269.3 -357.67,-564 -484.24,-873.2 -197.58,-482.799 -206.95,-965.299 -6.54,-1449.1 -267.43,0 -534.84,0 -802.257,0 z"
         style="fill:none;stroke:#0D0D0D;stroke-width:40;stroke-linecap:butt;stroke-linejoin:miter;stroke-miterlimit:4;stroke-dasharray:none;stroke-opacity:1"
         id="path26" />
      <path
         d="m 22254.7,20080.5 c -7.7,-396.9 24.6,-794.2 -76.3,-1187.7 -127.8,-498.6 -440.1,-829.4 -929.7,-1015.3 -283.9,-107.8 -565.8,-221.5 -853.1,-320.4 -1066.5,-367.3 -1700.7,-1093.4 -1964.1,-2144.3 -113.7,-453.3 -160.4,-917.1 -263.8,-1371.3 -20.3,-89.5 -38,-181.1 -72.5,-265.8 -86.9,-213.9 -274.8,-313.8 -505.1,-251.8 -418.3,112.6 -772.1,339.2 -1095.4,612.6 -658.2,556.7 -1131.3,1252.3 -1585.7,1961.4 -170.3,265.9 -346.8,527 -542.9,776.3 -378.9,481.7 -887.7,616 -1488.1,548.5 -529.6,-59.7 -1055.6,-148 -1589.8,-173.9 -984.9,-47.7 -1868.38,238.1 -2690.23,736.4 -462.86,280.6 -926.28,560.4 -1387.22,844 -638.83,392.9 -1312.58,461.5 -2026.36,219.7 -221.56,-75.1 -446.38,-144.5 -686.58,-145 -380.3,-0.8 -590.06,147.2 -690.82,504.4 -61.86,219.3 -93.04,443.7 -80.57,672.2 1209.75,0 2419.5,0 3629.25,0 121.63,-47.4 207.27,-132.9 289.39,-229.9 522.03,-616.5 1113.22,-1159.9 1839.82,-1550.6 787.22,-423.4 1615.62,-524 2486.72,-275.8 375.1,106.8 724,267.4 1064.6,446.9 542.4,285.9 817.9,752 942.8,1315.7 24.1,108.7 42.5,217.5 138.5,293.7 776.8,0 1553.6,0 2330.4,0 111.9,-200.8 -8,-381.5 -59.5,-564.8 -97.6,-347.2 -296,-650.8 -493.6,-949.6 -439,-664.3 -392.1,-1332.8 -49.3,-2009.5 145.4,-287.1 307.2,-565 584.1,-759.8 340.7,-239.7 598.9,-205.8 851.1,115.7 150.3,191.6 260,408 366.6,621.9 405.6,814.3 1053.9,1365.2 1917.7,1699.5 259.3,100.4 511.1,219.5 762.3,338.9 530,251.8 838.7,659.8 955.5,1211 22.7,107.1 32.6,220.4 131.4,296.7 280.2,0 560.4,0 840.5,0 z"
         style="fill:none;stroke:#0D0D0D;stroke-width:40;stroke-linecap:butt;stroke-linejoin:miter;stroke-miterlimit:4;stroke-dasharray:none;stroke-opacity:1"
         id="path28" />
      <path
         d="m 37115.5,-97.5 c 77.3,820.301 70.7,1639 -122.2,2444.6 -244.3,1020.1 -913.9,1698.5 -1899.6,2104.5 -375.4,154.5 -764.3,267.7 -1166.5,340.3 -270.9,48.9 -426.3,251 -398.9,515.4 19.5,189 68.1,373.3 131.2,554 180.2,516.4 359.3,1033.3 538.1,1550.2 221.5,640 182,1276.1 -33.1,1909.2 -223.4,657.4 -461,1310.7 -668.1,1972.9 -383.6,1226.4 -302.6,2425.5 249.4,3598.3 289.3,614.7 629.5,1203.4 967.3,1791.6 286.9,499.4 588.5,501.4 1052.1,263.6 438.7,-225 782.8,-564.5 1085.1,-938.4 756.6,-935.5 1366.7,-1947.1 1686.2,-3102.8 170.4,-616.5 236,-1251.2 337.9,-1879.6 93,-573.7 237.5,-1126.6 635.1,-1590.5 248.5,-290 566.4,-487.8 894.2,-676.6 408.3,-235.2 831.6,-442.8 1176.1,-775.2 295.5,-285 468.6,-621.6 579.3,-996.6 209.5,-709.3 272.4,-1443.3 380.9,-2169.3 139.2,-932.7 366.7,-1838.9 825,-2680 189.2,-347.4 404.5,-680.5 631.5,-1005.2 274.4,-392.599 507.4,-805.9 721.4,-1230.4 -280.2,0 -560.3,0 -840.5,0 -74.5,39.3008 -137.8,88.90234 -163.3,171 -163.1,526.102 -460.1,994.8 -696.8,1488.9 -440.8,920.1 -709.5,1884.5 -878,2880.4 -89.8,531.3 -178.7,1062.6 -293.5,1590.3 -209.2,961.2 -778,1641.5 -1671.2,2093.8 -360.7,182.7 -700.7,401.1 -1007.9,660 -392.9,331.1 -605.7,765.7 -726.7,1244.9 -123.6,489.5 -143.1,992.8 -193.5,1491.5 -117.7,1163.7 -454.4,2244.2 -1257.7,3154.5 -196,222.1 -422.4,409.7 -686.4,548.3 -488.6,256.5 -1053.1,161.5 -1524.9,-263.9 -625.6,-564.1 -928.3,-1272 -969.7,-2090.5 -42,-830.1 212.4,-1595.4 546.5,-2343.7 213.4,-477.9 453.7,-944 654.4,-1427.8 237.8,-573.5 300.8,-1157.1 195.2,-1764.5 -52.4,-301 -96.5,-603.7 -99.2,-911.5 -3.9,-442.5 159.9,-813 482.2,-1121 397.2,-379.7 796,-758.8 1145.4,-1180 546.2,-658.5 841.6,-1414.8 939,-2252.1 61.6,-529.7 51.3,-1062.299 103.5,-1591.897 12.7,-128.402 44.4,-273.203 -86.2,-376.703 -191,0 -382.1,0 -573.1,0 z"
         style="fill:none;stroke:#0D0D0D;stroke-width:40;stroke-linecap:butt;stroke-linejoin:miter;stroke-miterlimit:4;stroke-dasharray:none;stroke-opacity:1"
         id="path30" />
      <path
         d="m 16753.5,-97.5 c -43.9,275.602 -122.6,541.801 -86.2,832.5 54.3,434.4 307.2,694.3 706.7,824.7 427,139.5 869.2,235.3 1301.8,359.4 898.1,257.7 1689,697.5 2386.8,1299.6 593.3,511.9 1154.7,1048.4 1605.1,1686.8 457.4,648.4 701.3,1367.8 808.3,2136.4 82.6,593.5 126.4,1192.8 270.5,1777.2 98.5,399.4 219.7,791.1 434.7,1151.4 433.1,725.6 1051.4,663.9 1596.3,196.7 565,-484.5 902,-1113.8 1217.4,-1759.5 451.8,-925.1 798.9,-1894.1 1277.1,-2807.8 290.8,-555.7 657.7,-1045.4 1250.8,-1343.9 340.1,-171.1 703.2,-283.8 1059.1,-415.2 130.4,-48.2 262.2,-95.4 386.5,-156 698.1,-340.6 745.7,-916.4 413.9,-1483.2 C 31117.7,1749.8 30710.8,1422 30275.8,1129 29869.5,855.301 29453.8,594.699 29045.1,324.301 28871.2,209.203 28729.7,59.1016 28596.3,-97.5 c -382,0 -764,0 -1146,0 -70.9,52.8008 -69.7,122.6016 -56.5,199.203 85.1,492.899 333.4,893.098 738.3,1203.297 243.9,186.9 506.8,349.4 751.4,535.4 473.2,359.7 532,635 126.4,1056.5 -845.3,878.8 -1280.1,1959.5 -1710.2,3048 -275.7,697.8 -536.8,1401.8 -931.8,2049.5 -171.3,280.7 -362.2,547.6 -606.6,774.6 -119.8,111.3 -253.5,202.5 -426,229.1 -309.1,47.5 -492.1,-123.5 -638.2,-344.7 -227.7,-344.5 -289.2,-742 -363.2,-1132.9 C 24213.2,6882.2 24101,6243.9 23836.5,5639.4 23586.1,5067.1 23232.6,4558.9 22795.1,4112.7 22184.3,3489.8 21556.3,2881.3 20852,2352.3 20237,1890.4 19553.8,1536.8 18868.5,1185.9 18582,1039.1 18298.3,888.902 18069.1,659.398 c -144,-144.199 -225.5,-308.796 -229.9,-508.296 -2,-93.0004 -4.6,-185.4028 -92.4,-248.602 -331.1,0 -662.2,0 -993.3,0 z"
         style="fill:none;stroke:#0D0D0D;stroke-width:40;stroke-linecap:butt;stroke-linejoin:miter;stroke-miterlimit:4;stroke-dasharray:none;stroke-opacity:1"
         id="path32" />
      <path
         d="m 43151.6,-97.5 c -292.9,0 -585.8,0 -878.7,0 -49.4,41.7031 -84.8,89.80078 -86.8,156.7031 -20.7,671.9959 -205.9,1317.3969 -351.2,1968.6969 -212.4,951.8 -327.5,1920.1 -535.1,2872.4 -117,536.4 -286.6,1053.9 -625.6,1506.1 -287.6,383.6 -683,637.2 -1112.2,845.4 -387.4,187.9 -796.4,323.5 -1218.9,420.7 -124.5,28.7 -251.1,32.3 -377.4,45.4 -463.7,47.9 -736.8,-194.3 -903.6,-563.4 -264.8,-585.8 -212.9,-1172.8 67,-1741.8 253.1,-514.6 580.8,-990.8 840.6,-1503.2 358.7,-707.6 544.8,-1460.5 685.7,-2227.7 98.5,-536.1 174.9,-1076.8 382.2,-1588.6008 26.2,-64.7969 39.5,-129.8984 -11.9,-190.6992 -254.7,0 -509.4,0 -764.1,0 -138.8,53.9023 -140.3,181 -158.7,292.301 -60,362.5 -97.8,728.301 -121.2,1094.099 -80.1,1251.2 -486.2,2382.1 -1299.6,3371.1 -256.6,311.9 -504.2,631.3 -689.8,989.6 -126.9,244.9 -183.3,504.3 -194.1,778.6 -18.8,479.7 49.5,951.9 100.9,1426.3 33.1,305.5 -41.7,594.9 -171,873.2 -224.4,483.3 -551.9,908.2 -831,1360.5 -349.2,566.2 -650.5,1152.4 -782.8,1804.3 -130.9,645.2 -121.6,1280 210.4,1877.7 177.1,318.7 416.3,589.1 743.1,772.1 564.3,316.2 1220.1,227.9 1709.1,-204.6 673.9,-596.2 997.9,-1359.5 1154.7,-2203.8 58.2,-313.5 93.9,-630.3 78.1,-949.7 -21.2,-429.1 26.9,-856 46.2,-1283.4 30.6,-679.8 391.4,-1170.1 995.5,-1511.6 372.9,-210.9 747.5,-419.3 1125,-621.8 838.9,-449.8 1312.8,-1149.3 1546.7,-2024.7 188.8,-706.8 285.2,-1430 425.8,-2145.3 180.3,-917.6 464.3,-1805.5 824.3,-2671.798 104.2,-250.801 171.9,-512.301 239.1,-773.899 24.2,-94.5038 30.5,-182.1014 -60.7,-249.203 z"
         style="fill:none;stroke:#0D0D0D;stroke-width:40;stroke-linecap:butt;stroke-linejoin:miter;stroke-miterlimit:4;stroke-dasharray:none;stroke-opacity:1"
         id="path34" />
      <path
         d="m 17746.8,-97.5 c -77.9,523.301 196,867.5 633.6,1113.9 559.7,315.2 1133,608.3 1691,926.2 477.1,271.8 903.1,611.5 1319.1,964.4 320.4,271.7 609.1,573.6 921.3,852.3 1026.9,916.5 1652.4,2033.1 1856.8,3370.1 69.3,453.3 142.2,908.2 318.7,1339.5 86.3,211 227.2,381 402.8,526.8 164.6,136.8 494,141.5 717.2,1.2 378.9,-238.1 618.6,-594 841.5,-959 502.7,-823.4 796,-1733.5 1159.2,-2614.6 286.5,-695 586.3,-1384.9 1062.3,-1985.6 161.6,-203.9 338.8,-396.6 513.5,-590.6 238.6,-265 251.6,-645.9 -39.2,-900.4 -246.4,-215.5 -510,-406.6 -782.7,-584.5 -542.2,-353.6 -836.6,-840.899 -911.6,-1459.7 -369.3,0 -738.6,0 -1107.9,0 -119.1,74.6016 -140,195.4023 -165.4,316.602 -117.7,562.097 49.8,1078.698 268.5,1587.798 75.4,175.4 156.5,348.4 238,521.1 265.1,562 360.1,1146.2 250.1,1755.7 -133.6,740.2 -354.3,1453.5 -740.8,2112.1 -75.3,128.3 -166.4,247.1 -269.8,355.4 -225.6,235.9 -477.3,223.6 -672.7,-33.5 -112.7,-148.5 -213,-306 -290.3,-474.2 C 24495.9,5034.7 23800.2,4191.8 22959.1,3453.4 22000.9,2612.3 21043.2,1771.2 20035.5,983.5 19703,723.602 19366.3,448.199 19208.4,38.6016 19184.5,-23.5 19124.8,-51.6992 19083.9,-97.5 c -445.7,0 -891.4,0 -1337.1,0 z"
         style="fill:none;stroke:#0D0D0D;stroke-width:40;stroke-linecap:butt;stroke-linejoin:miter;stroke-miterlimit:4;stroke-dasharray:none;stroke-opacity:1"
         id="path36" />
      <path
         d="m 43151.6,-97.5 c -41.9,425.699 -191,824.301 -354.9,1215.3 -455.5,1086.2 -711.1,2219.8 -907.6,3370.4 -117.5,687.9 -233.8,1377.3 -560.3,2014.5 -250.9,489.7 -633.9,849.5 -1109.2,1132.3 -492,292.8 -1017.8,530.4 -1488.6,858.5 -527.4,367.7 -735,876.6 -778.9,1482.5 -51.7,713.4 21.5,1432.9 -113,2141.3 -150.3,791.5 -442.2,1516.4 -1057.7,2094 -662.6,621.7 -1575.6,556.9 -2144.4,-147.4 -523.5,-648.3 -586.6,-1376.1 -431.6,-2143.4 148.1,-733.3 506.1,-1381.6 914.2,-2007.2 165.7,-254 325.8,-511.5 495.2,-763.2 398.1,-591.4 440.6,-1230.1 314.1,-1905.6 -155.9,-832.3 26.6,-1583.6 600.7,-2249.3 439,-509.1 817.5,-1060.7 1087.5,-1676.9 232.8,-531.1 343.6,-1086.6 416.2,-1653.4 68.5,-533.6 88.7,-1072.4 189,-1602.4977 10.1,-53.80074 26.1,-106.6015 39.3,-159.9023 -191,0 -382,0 -573,0 -41.9,811 -22.9,1627.3 -190.4,2428.2 -166,793.8 -555,1475.7 -1132.6,2066.8 -305.1,312.1 -620,614.6 -926.8,924.7 -413.1,417.5 -474.9,930.6 -408.4,1472.8 41,333.7 103.4,665.6 130.5,1000.3 34.3,421.7 -68,825.7 -220.9,1219.9 -249.4,643 -594.8,1245.8 -847.5,1887.2 -347.2,881.4 -522.2,1778.7 -260.4,2712.7 175.8,627.1 516.9,1153.9 1058.7,1551.3 546.3,400.6 1209.5,384.9 1736.6,-38.3 854,-685.7 1308.2,-1592.4 1552.2,-2612.1 140,-585.5 176.9,-1184.7 237.6,-1780.8 61.4,-603.1 193.8,-1184.9 602.7,-1675.4 174.4,-209.2 397.6,-361 623,-507.8 278.9,-181.6 566.7,-351.5 857.8,-514.7 740.7,-415.3 1184.6,-1034.3 1394.7,-1825.6 190.8,-719.1 277.1,-1456 415.5,-2183.9 192.8,-1013.7 537.1,-1976.8 1023.6,-2892.6 211.9,-399.098 400,-806.298 542.9,-1232.7 -242,0 -483.9,0 -725.8,0 z"
         style="fill:none;stroke:#0D0D0D;stroke-width:40;stroke-linecap:butt;stroke-linejoin:miter;stroke-miterlimit:4;stroke-dasharray:none;stroke-opacity:1"
         id="path38" />
      <path
         d="m 40974,20080.5 c 458.4,0 916.9,0 1375.3,0 63.6,-113.8 -35.3,-169 -96.2,-232.3 -381,-395.9 -850.6,-676.1 -1331.5,-942.3 -297.3,-164.6 -597.4,-324.2 -864.2,-536.5 -419.9,-334.3 -641.7,-767.5 -708.4,-1278.1 -80.9,-618.1 122.3,-1184.8 369.3,-1739.2 258.4,-580.1 585.5,-1126.6 909.2,-1674.3 75.3,-127.5 157.9,-251.5 263.3,-359.4 242.3,-248.2 442.9,-247.2 669.5,16.1 192.8,224 310.3,491.7 425.2,756.5 250.5,577.7 391.8,1189.1 577.5,1786.8 212.1,682.5 458.9,1349.8 902.2,1932.7 176.6,232.2 375,447.4 560.5,672.6 339.2,412 515.6,868 442.7,1398.3 -10.5,76.8 -12.1,146.5 58.4,199.1 369.3,0 738.6,0 1107.9,0 51.5,-43.5 113.7,-74 132.3,-149.2 105.9,-426.7 173.4,-851.8 25.6,-1284.5 -155.4,-454.8 -502.1,-755.3 -876.2,-1037.4 -376,-283.3 -739.7,-576 -1015.8,-960.9 -331.6,-462.2 -521.1,-977.6 -664.5,-1513.5 -225.2,-841.6 -414.3,-1692.8 -727.5,-2510.7 -162.7,-425 -318.8,-853 -590,-1230 -91.4,-127.1 -199.3,-238.7 -333.8,-323.5 -387.1,-243.9 -811.4,-63.1 -1042.7,227.9 -212.3,267 -349.8,575.1 -436.8,892.7 -306.3,1117.8 -800.1,2166.4 -1243.7,3234.4 -251.2,604.9 -420.3,1234.3 -385.6,1896.3 39.3,748.3 332.1,1372.3 971.9,1828.9 414.3,295.7 879.9,517.1 1282.5,828.9 71.2,55.1 172.1,45.1 243.6,100.6 z"
         style="fill:none;stroke:#0D0D0D;stroke-width:40;stroke-linecap:butt;stroke-linejoin:miter;stroke-miterlimit:4;stroke-dasharray:none;stroke-opacity:1"
         id="path40" />
      <path
         d="m 40974,20080.5 c -303.5,-304 -676.5,-517.3 -1050.8,-723.8 -746.3,-411.7 -1236.1,-991 -1340.1,-1831.9 -62.6,-506.9 28.2,-998.9 167.3,-1487 186,-652.9 484.8,-1263.1 762.2,-1880.7 258.5,-575.7 435.6,-1175.6 625.7,-1772.5 115.8,-363.3 237.5,-727.8 482.5,-1033.5 279.3,-348.3 710.5,-427 1053,-97.2 305.7,294.3 454.5,675.4 609.8,1050.7 368.6,890.7 594.1,1821.9 832.5,2749.4 94.8,368.8 209.1,731.1 370.3,1080 301.5,652.9 800.4,1140.2 1385.3,1557.7 451.6,322.5 818.8,698.3 901.2,1265.3 44.1,304 -22.3,597 -79.1,891.5 -15,78.2 -39.1,154.7 -59.1,232 242,0 483.9,0 725.9,0 60,-244.1 126.4,-486.8 179,-732.3 182.6,-851.4 -64.1,-1416.7 -805.8,-1915 -364.4,-244.8 -740.6,-473.1 -1072.3,-764.2 -528.6,-463.7 -838.1,-1042.5 -1010.8,-1695.2 -332.7,-1257.9 -669.7,-2514.6 -1038.9,-3763.1 -97.3,-329 -190.4,-663.4 -405.3,-946.3 -215.5,-283.6 -520.3,-389.1 -870.1,-347.5 -778.4,92.6 -1198.8,579.3 -1444.5,1249.3 -163.7,446.3 -255.6,909.8 -356.9,1370.7 -209.6,953.6 -610.3,1840.7 -1005.6,2730.7 -283.7,638.4 -508.2,1295.7 -591.5,1988.5 -82.4,685.8 -97.2,1366.5 241.2,2009 108.9,206.8 267.8,353.2 478.8,454.6 250,120.2 499.9,240.5 749.8,360.8 522.1,0 1044.2,0 1566.3,0 z"
         style="fill:none;stroke:#0D0D0D;stroke-width:40;stroke-linecap:butt;stroke-linejoin:miter;stroke-miterlimit:4;stroke-dasharray:none;stroke-opacity:1"
         id="path42" />
      <path
         d="m 44526.8,20080.5 c 157.1,-655.5 -21.3,-1238 -484.7,-1716.5 -832.4,-859.5 -1236.9,-1909 -1539.1,-3014.1 -168.4,-615.9 -351.3,-1228 -676.1,-1790.2 -74.7,-129.2 -153.1,-253.1 -264.7,-356.8 -251.1,-233.2 -466.9,-229.6 -706.9,16.6 -269.3,276.2 -435,617.6 -620.8,943.5 -281,493 -560.5,988.4 -757.2,1521.1 -241.4,654.2 -360.5,1310.2 -72.9,1983.8 205.7,481.8 577.6,807.9 1029.6,1070.1 489.3,284 1005.2,528.1 1443.2,890.5 169.2,140 330,286.5 472.1,452 725.8,0 1451.7,0 2177.5,0 z"
         style="fill:none;stroke:#0D0D0D;stroke-width:40;stroke-linecap:butt;stroke-linejoin:miter;stroke-miterlimit:4;stroke-dasharray:none;stroke-opacity:1"
         id="path44" />
      <path
         d="m 19083.9,-97.5 c 30.7,247.699 157.5,449.602 329.2,628.402 372.3,387.5 795.2,720.898 1220.6,1051.798 489.2,380.6 959.7,782.1 1418.3,1195.9 440.4,397.3 896.2,778.5 1321.2,1192.1 541.6,526.9 985.7,1118 1329,1780.4 127.7,246.5 250.6,495.5 403.9,728.9 289.4,440.7 638.2,452.8 968.2,42.2 232.5,-289.3 396.6,-611.2 531,-949.8 225.5,-568.3 400,-1149.7 458.1,-1757.5 57.6,-603.2 -108.7,-1163.2 -373.9,-1703.5 -198.6,-404.6 -367.1,-818 -441.5,-1265.9 -54.3,-327.098 38,-631.297 94.4,-943 -318.4,0 -636.7,0 -955.1,0 -107.6,48.4023 -153.5,135.1016 -179.9,243 -121.1,494.5 -74.3,984.2 42.2,1471.2 111.2,464.6 251.7,923.1 328.8,1394.7 39.5,242 48.9,488 -19.8,728.2 -73.3,256.4 -231.6,346.5 -500.9,294.6 -133,-25.6 -251.4,-82.2 -364.5,-153.1 -810.7,-508.2 -1581.6,-1064.2 -2294.7,-1696.2 -571.2,-506.3 -1118.1,-1032 -1600,-1618.798 C 20683,425.402 20593,271.199 20524.6,106 c -37.1,-89.8984 -89.9,-160.3008 -180,-203.5 -420.3,0 -840.5,0 -1260.7,0 z"
         style="fill:none;stroke:#0D0D0D;stroke-width:40;stroke-linecap:butt;stroke-linejoin:miter;stroke-miterlimit:4;stroke-dasharray:none;stroke-opacity:1"
         id="path46" />
      <path
         d="m 20344.6,-97.5 c 152.4,489.902 486,861.402 834.5,1232.6 765.6,815.6 1606.4,1548.4 2524.8,2199.2 327.6,232.1 669.6,445.4 1006,665.8 146,95.7 315.2,131 485.7,152.6 170.4,21.6 354.3,-108.9 429.3,-304.8 106.6,-278.4 90,-569 46.4,-852.9 -83.6,-545.4 -267.5,-1070.6 -374.6,-1611.5 -98.8,-499.102 -111.3,-997.098 90.6,-1481 -585.8,0 -1171.5,0 -1757.3,0 -187.3,133.1992 -179.8,338.402 -202.7,528.402 -13.1,109 -15,219.399 -53.6,323.301 -68,183.297 -218,221.598 -367.2,92.098 C 22794,661.898 22694,420.801 22656.3,154.902 22641.7,52 22603,-31.1992 22522.1,-97.5 c -725.8,0 -1451.7,0 -2177.5,0 z"
         style="fill:none;stroke:#0D0D0D;stroke-width:40;stroke-linecap:butt;stroke-linejoin:miter;stroke-miterlimit:4;stroke-dasharray:none;stroke-opacity:1"
         id="path48" />
      <path
         d="m 21414.2,20080.5 c -48.2,-704.3 -349.6,-1257.9 -1029.8,-1578.1 -354,-166.6 -714.2,-321.2 -1072,-480.4 -710.2,-316 -1216.9,-825.2 -1563.7,-1495.9 -129.8,-250.9 -256.1,-506.2 -437,-730.2 -210.9,-261.2 -464.9,-319.1 -773,-168.9 -445.9,217.4 -654.7,619.7 -843.7,1029.9 -308.8,670.2 -306.7,1327.6 124.1,1957.8 307.4,449.5 522.8,936 628.8,1465.8 356.6,0 713.1,0 1069.7,0 79.3,-57.4 119.2,-131.9 142.6,-227.2 42.1,-172 104.2,-338.9 187.6,-498.4 113.9,-217.5 305.6,-332 544.4,-352.6 603,-52 1137.7,139 1624.4,467.5 147.5,99.6 253.3,240.5 335.7,393.6 52,96.4 120.6,170.2 221.5,217.1 280.1,0 560.3,0 840.4,0 z"
         style="fill:none;stroke:#0D0D0D;stroke-width:40;stroke-linecap:butt;stroke-linejoin:miter;stroke-miterlimit:4;stroke-dasharray:none;stroke-opacity:1"
         id="path50" />
      <path
         d="m 39025.7,-97.5 c -270.4,530.801 -363.1,1108.5 -448.1,1682.4 -180.9,1221.4 -635.1,2338.1 -1312.7,3379.2 -373.2,573.2 -561.2,1189.8 -416.1,1872.5 57.4,270 185,504 367.2,716.3 276.4,322.1 655.6,295.4 1005.3,232.4 724.4,-130.5 1402.3,-391.1 2002.6,-817.7 530.9,-377.3 830.6,-899.1 1019.7,-1490.7 229,-716.5 318.1,-1459.9 444.9,-2195.7 132.2,-767 311,-1524.9 473.7,-2285.899 77,-360.102 126.9,-723.598 110.7,-1092.801 -1082.4,0 -2164.8,0 -3247.2,0 z"
         style="fill:none;stroke:#0D0D0D;stroke-width:40;stroke-linecap:butt;stroke-linejoin:miter;stroke-miterlimit:4;stroke-dasharray:none;stroke-opacity:1"
         id="path52" />
      <path
         d="m 3229.79,-97.5 c -79.56,754.301 185.29,1433.5 492.7,2104.3 394.43,860.8 717.67,1754.9 1283.82,2535 321.91,443.6 717.52,787.4 1286.38,915.3 228.31,51.3 443.01,23 656.39,-41.5 438.32,-132.6 810.04,-374.7 1153.87,-662.7 535.85,-448.8 1043.57,-931.2 1665.11,-1277.8 626.14,-349 1300.74,-554.1 2016.74,-630.1 460.1,-48.9 924.1,-64.7 1383.5,-117.4 743.2,-85.2 1324.7,-382.1 1596.8,-1116 209.3,-564.9 397.7,-1134.998 574.9,-1709.1 -203.7,0 -407.5,0 -611.2,0 -106.7,69.6016 -147.7,180.1016 -192.4,287.902 -103.6,250.297 -213.2,497.598 -330.8,742.5 -294.4,613.298 -793,968.598 -1464.2,1127.298 -445.6,105.4 -899.3,167.4 -1349.2,249.7 -1087.6,198.7 -2045.82,656 -2904.91,1320 -302.43,233.8 -601.38,472.7 -927.87,676.3 -42.72,26.7 -84.76,54.5 -127.95,80.3 -748.02,447.1 -1357.9,314.7 -1885.89,-372.9 -321.15,-418.2 -526.72,-895 -695.54,-1384.2 C 4581.43,1851.1 4303.2,1074.7 4140.92,266.703 4114.66,135.902 4124.05,-6.39844 3993.84,-97.5 c -254.69,0 -509.37,0 -764.05,0 z"
         style="fill:none;stroke:#0D0D0D;stroke-width:40;stroke-linecap:butt;stroke-linejoin:miter;stroke-miterlimit:4;stroke-dasharray:none;stroke-opacity:1"
         id="path54" />
      <path
         d="m 48079.7,1188.8 c -141.1,191.2 -184.3,415.6 -218.2,638.6 -69.4,456.1 -40.3,912.3 11.3,1369.2 74.8,661.7 175.8,1323.6 127.4,1991.7 -43.9,606.3 -228,1175.2 -538.1,1707.2 -246.9,423.4 -525.6,827.7 -875.8,1174.3 -383.2,379.2 -835,677.4 -1351.6,873.6 -301.7,114.5 -609.4,215.8 -905.3,342.7 -779.9,334.3 -995.9,697.4 -1023.1,1434.8 -19.7,535.4 70.5,1062.5 198.3,1579.9 207.2,839.1 421.3,1677 688,2501.5 242.7,750.3 713.3,1325.8 1391.6,1756.8 392.3,249.3 811.8,462.1 1170.2,757.7 520.9,429.8 754.5,965.8 617.8,1631.8 -79.1,385.4 -206.2,757.2 -324,1131.9 203.8,0 407.5,0 611.3,0 91.7,-52.6 134.2,-135.9 174.2,-228.4 157.3,-362.7 204.1,-746.3 246,-1131.5 0,-196.1 0,-392.1 0,-588.1 -23.9,-623 -398.9,-1027.6 -906.1,-1350.8 -180.3,-114.8 -363.8,-224.8 -548.8,-332.3 -370,-215.1 -742.3,-425.3 -1068.9,-702.9 -517.4,-439.7 -785.8,-1016.7 -974.7,-1633.2 -228.4,-745 -456.4,-1491.5 -555.1,-2265.8 -37.2,-291.8 -34.1,-586.5 -0.2,-878.9 55.7,-480.6 352.7,-815.2 740.4,-1086.3 360.9,-252.4 771.9,-424.8 1149.8,-651.3 580.7,-348.1 1060.2,-795.7 1464.3,-1322.7 162.4,-211.9 307,-435 456,-655.4 122.4,-181.1 190.8,-380.9 243.3,-587.7 0,-1825.4 0,-3650.9 0,-5476.4 z"
         style="fill:none;stroke:#0D0D0D;stroke-width:40;stroke-linecap:butt;stroke-linejoin:miter;stroke-miterlimit:4;stroke-dasharray:none;stroke-opacity:1"
         id="path56" />
      <path
         d="m 33448.1,20080.5 c -52.6,-501.6 -399.6,-862.3 -958.5,-981.2 -254.3,-54.1 -513,-85.1 -775.1,-85.2 -1264.6,-0.4 -2475.2,-207.4 -3596.9,-812 -559.6,-301.6 -1140.6,-568.1 -1764.5,-735.8 -313.3,-84.2 -631.7,-93.5 -946.1,-55.9 -403.6,48.2 -643.7,335 -833.4,644.2 -330.4,538.2 -483.4,1141.5 -636.9,1742.4 -24.2,94.8 -51.6,189 -77.5,283.5 369.3,0 738.6,0 1107.9,0 79.5,-56.9 120.3,-133.8 149.9,-225 96.4,-297.5 205.2,-586.7 405,-843.2 301.1,-386.8 693.8,-512.3 1172.3,-441.2 406.6,60.3 781.4,211.3 1147.3,384.2 658.3,310.9 1333,575 2064.4,679.8 464.4,66.4 934.7,88.3 1397.4,167.5 307.9,52.7 600.6,152 884,277.9 420.2,0 840.5,0 1260.7,0 z"
         style="fill:none;stroke:#0D0D0D;stroke-width:40;stroke-linecap:butt;stroke-linejoin:miter;stroke-miterlimit:4;stroke-dasharray:none;stroke-opacity:1"
         id="path58" />
      <path
         d="m -93.8477,5562.6 c 237.2697,175.6 411.4807,417.6 661.7737,579.8 652.374,422.8 1367.444,671.5 2155.654,704 275.89,11.3 397.78,-143.3 363.91,-407.3 C 2972.38,5541.9 2498.26,4809.5 1936.79,4118.6 1518.45,3603.7 1040.59,3133.8 677.621,2577.2 287.645,1979.1 4.92969,1343.3 -59.3398,630.699 -62.5117,595.5 -81.9727,561.703 -93.8477,527.301 c 0,1678.399 0,3356.899 0,5035.299 z"
         style="fill:none;stroke:#0D0D0D;stroke-width:40;stroke-linecap:butt;stroke-linejoin:miter;stroke-miterlimit:4;stroke-dasharray:none;stroke-opacity:1"
         id="path60" />
      <path
         d="m 3993.84,-97.5 c 47.18,464.902 161.81,916 306.18,1360.6 255.91,788 468.77,1591.4 868.4,2329.3 155.7,287.5 316.63,580.8 581.22,788 601.05,470.7 1086.02,480.9 1748.17,75.2 419.68,-257.1 800.6,-563.5 1189.57,-858.7 923.11,-700.6 1973.62,-1098.6 3128.02,-1269.7 395.5,-58.6 791.8,-119.9 1173.8,-243.2 513.1,-165.7 923.6,-443.9 1187,-917 226.2,-406.199 424.9,-820.102 552.6,-1264.5 -178.3,0 -356.6,0 -534.9,0 -104,48.6992 -160.7,134.2031 -200.9,234.5 -61.9,154.5 -148.7,297.301 -227.4,444.102 -283.5,528.798 -748.1,834.698 -1319.3,1016.398 -351.1,111.7 -711.2,190.9 -1071.9,263.4 C 10269.9,2083 9257.47,2510.5 8313.87,3098.9 7961.97,3318.4 7613,3541 7227.45,3707.8 6645.22,3959.6 6151.46,3648.7 5923.59,3296.6 5665.13,2897.1 5498.73,2461.8 5359.24,2015.7 5159.48,1377 4954.84,739.5 4789.88,91.1992 4771.38,18.5 4745.17,-49.3008 4681.48,-97.5 c -229.21,0 -458.43,0 -687.64,0 z"
         style="fill:none;stroke:#0D0D0D;stroke-width:40;stroke-linecap:butt;stroke-linejoin:miter;stroke-miterlimit:4;stroke-dasharray:none;stroke-opacity:1"
         id="path62" />
      <path
         d="m 4681.48,-97.5 c 16.21,378.5 159.25,729 265.83,1086.703 184.01,617.397 351.94,1240.197 611.85,1834.497 104.22,238.4 218.74,476.4 397.44,666.3 471.59,500.9 943.22,518.7 1595.29,170.2 528.38,-282.4 1017.6,-626 1548.22,-906 864.25,-456.1 1797.09,-709.7 2752.49,-906.3 392.6,-80.8 774.8,-193.2 1133.7,-374 553.8,-278.9 845.2,-760.298 1087.1,-1281.701 44,-94.8982 80.6,-193.097438 120.5,-289.699 -229.2,0 -458.4,0 -687.6,0 -78.5,53.1016 -152.6,110.8008 -196.5,195.5 -341.9,659.602 -962.8,952.3 -1650.7,1144.3 -830.2,231.7 -1672.06,425.2 -2475.97,739.1 -506.42,197.7 -994.94,436.9 -1517.06,598.2 C 7050.41,2769.8 6620.41,2599.5 6319.9,2043.9 5989.52,1433.1 5753.32,787.699 5556.78,127.902 5529.27,35.5 5487.3,-40.7969 5407.33,-97.5 c -241.94,0 -483.9,0 -725.85,0 z"
         style="fill:none;stroke:#0D0D0D;stroke-width:40;stroke-linecap:butt;stroke-linejoin:miter;stroke-miterlimit:4;stroke-dasharray:none;stroke-opacity:1"
         id="path64" />
      <path
         d="m -93.8477,13575 c 211.8357,250.8 428.2857,498.1 634.0037,753.4 158.219,196.4 358.434,347 563.834,488 290.07,199.2 500.9,141.1 666.7,-162.2 246.57,-451 431.4,-927.3 583.81,-1413.1 191.46,-610.3 329.89,-1233.9 299.3,-1876.3 -32.65,-685.9 -161.39,-1352.3 -602.95,-1918.6 -404.53,-518.8 -977.17,-740.3 -1629.87,-794.1 -170.421,-14 -343.1519,-2.1 -514.8277,-2.2 0,318.6 0,637.1 0,955.6 62.8399,71.6 135.8711,42.3 210.0547,22 712.133,-194.7 1284.703,48.3 1564.683,705.8 289.43,679.8 225.49,1342.6 -230.3,1946.1 -262.53,347.6 -660.512,412.8 -1044.594,192.7 -120.101,-68.8 -235.719,-144.5 -335.914,-239.9 -44.875,-42.8 -89.1875,-92.8 -163.9297,-53.9 0,465.6 0,931.1 0,1396.7 z"
         style="fill:none;stroke:#0D0D0D;stroke-width:40;stroke-linecap:butt;stroke-linejoin:miter;stroke-miterlimit:4;stroke-dasharray:none;stroke-opacity:1"
         id="path66" />
      <path
         d="m 48079.7,6665.2 c -274.4,447.1 -539.5,899.3 -869.7,1313 -456.4,571.9 -1018.8,1018.1 -1673.8,1364.7 -416.3,220.3 -839.9,425.8 -1179.4,766.1 -293.2,293.9 -413.5,636.4 -440.7,1024.8 -60,859.8 194.1,1671.6 418.2,2487.2 107.3,390.2 229.5,775.9 392,1149.8 298.1,685.5 825,1163.5 1472,1537.7 261.5,151.2 520.2,306.8 782.3,457 553.3,317.2 943.7,754.3 1099.1,1367 0,-465.6 0,-931.1 0,-1396.7 -48,-119 -136.7,-199.6 -247.2,-269 -384,-241.6 -792.8,-441.9 -1186.2,-667.6 -733.4,-420.9 -1252.3,-1007 -1522.1,-1794 -207.7,-605.6 -404.1,-1213.5 -484.2,-1849.1 -36.8,-292.1 -39.2,-585.7 8,-878.2 67.3,-417.4 314,-728.1 636,-994.3 372.8,-308.2 804,-538.1 1194,-824 589.8,-432.4 1054.1,-972.1 1474.4,-1552 71,-97.9 74.6,-219.5 127.3,-323.5 0,-306.3 0,-612.6 0,-918.9 z"
         style="fill:none;stroke:#0D0D0D;stroke-width:40;stroke-linecap:butt;stroke-linejoin:miter;stroke-miterlimit:4;stroke-dasharray:none;stroke-opacity:1"
         id="path68" />
      <path
         d="m 30773.9,-97.5 c 401.8,309.699 832.6,582.301 1227.8,901 660.1,532.4 1206.6,1152.9 1631.7,1874.6 134.5,228.3 276.6,460.8 488.8,628.9 572.6,453.4 1177.2,402.1 1763.5,-78.7 470.6,-385.8 651.3,-925.5 729.9,-1495.4 84,-608.8 49.2,-1220.201 3.3,-1830.4 -203.8,0 -407.5,0 -611.2,0 -132.8,113.1992 -82,256.402 -73.1,394.902 37.5,585 23.4,1164.198 -263.6,1701.898 -209.4,392.4 -547.6,489 -955.8,286.1 C 34430.6,2143.9 34222.8,1917.5 34019,1692 33442.9,1054.7 32775.1,519.801 32061.7,33.6992 c -100.5,-68.5 -223.9,-82.5976 -332.7,-131.1992 -318.4,0 -636.8,0 -955.1,0 z"
         style="fill:none;stroke:#0D0D0D;stroke-width:40;stroke-linecap:butt;stroke-linejoin:miter;stroke-miterlimit:4;stroke-dasharray:none;stroke-opacity:1"
         id="path70" />
      <path
         d="m 5407.33,-97.5 c 194.9,809.602 480.99,1588.4 907.13,2311.5 287.07,487.2 770.98,639.7 1324.66,471.5 535.69,-162.8 1036.3,-407 1554.57,-610.2 810.11,-317.5 1658.51,-514 2496.01,-746.1 485.8,-134.6 954.4,-317.6 1316.7,-674.598 218.5,-215.204 391.2,-465.801 499.9,-752.102 -254.7,0 -509.4,0 -764.1,0 -102.5,51.7031 -184,124.8008 -259.9,209.902 -260.3,291.7 -607.5,457.7 -970.4,595.5 -550.8,209.2 -1126.5,341.798 -1693.52,500.898 -536.48,150.5 -1067.72,318.4 -1616.6,427.6 -407.61,81 -784.15,38.9 -1119.54,-210.1 C 6875.76,1273 6757.73,1052.4 6632.35,840.5 6496.99,611.703 6392.5,368.199 6296.25,122 c -34.6,-88.5 -85.11,-162.6016 -163.07,-219.5 -241.94,0 -483.9,0 -725.85,0 z"
         style="fill:none;stroke:#0D0D0D;stroke-width:40;stroke-linecap:butt;stroke-linejoin:miter;stroke-miterlimit:4;stroke-dasharray:none;stroke-opacity:1"
         id="path72" />
      <path
         d="m 32187.4,20080.5 c -123.7,-175.8 -320.2,-233.2 -515.7,-289.1 -503.2,-143.9 -1027.6,-155.4 -1543.1,-221.5 -622.5,-79.9 -1217.8,-239.4 -1789.1,-492.5 -489.7,-216.9 -964.3,-474 -1502.4,-574.6 -836.4,-156.5 -1217.9,126.4 -1583,745 -149.9,253.9 -239.5,539.7 -287,832.7 2406.8,0 4813.5,0 7220.3,0 z"
         style="fill:none;stroke:#0D0D0D;stroke-width:40;stroke-linecap:butt;stroke-linejoin:miter;stroke-miterlimit:4;stroke-dasharray:none;stroke-opacity:1"
         id="path74" />
      <path
         d="m 48079.7,16037.5 c 0,-232.8 0,-465.5 0,-698.3 -50.4,-105.4 -139.3,-167 -244.1,-220.6 -587.3,-300.3 -1115.2,-671.3 -1434.9,-1250.3 -344.4,-623.8 -516.1,-1292.6 -433.6,-2001.2 58.2,-499.5 394.6,-850.3 761.7,-1172.4 417.9,-366.8 850.3,-718.7 1211.6,-1141.8 73,-85.5 73.8,-194.8 139.3,-278.1 0,-306.3 0,-612.6 0,-918.9 -117.2,-51.7 -160.8,43.7 -213,105.7 -180,214 -354.3,431.8 -549.3,634.3 -395.8,410.7 -858.5,745.5 -1310.4,1093.5 -400.7,308.5 -774.6,641.3 -920.6,1139.7 -110.8,378.1 -105,763.3 -38.9,1146.9 118.3,686.4 301.2,1356 678.2,1956.9 304.3,485.1 733.4,856.8 1237.1,1149 267.3,155.1 552.7,277.5 822.6,428.1 87.8,49 185.8,126.7 294.3,27.5 z"
         style="fill:none;stroke:#0D0D0D;stroke-width:40;stroke-linecap:butt;stroke-linejoin:miter;stroke-miterlimit:4;stroke-dasharray:none;stroke-opacity:1"
         id="path76" />
      <path
         d="m 48079.7,16037.5 c -808.7,-364.9 -1604.4,-747.4 -2153.9,-1465 -198.3,-258.9 -331.9,-549.8 -442.4,-850.2 -219.1,-596 -390.6,-1201 -385.1,-1842.1 4.9,-585.1 263.9,-1040 718.6,-1415.2 544.2,-449.1 1144.1,-838 1618.8,-1362.8 220.5,-243.8 429.7,-497.2 644,-746.3 0,-257.3 0,-514.6 0,-771.8 -365.7,484.3 -713.5,982.2 -1167,1398.9 -309.1,283.9 -650,527.5 -1005.3,754.5 -397.3,253.6 -794.6,506.8 -1080.9,887.8 -189.4,252 -290.5,533.4 -296.6,838.2 -23.8,1196.2 298.3,2315.2 899.2,3351.4 306.3,528.2 814.3,882 1362.1,1171.8 440.1,232.9 876.3,471.9 1288.5,749.1 0,-232.7 0,-465.5 0,-698.3 z"
         style="fill:none;stroke:#0D0D0D;stroke-width:40;stroke-linecap:butt;stroke-linejoin:miter;stroke-miterlimit:4;stroke-dasharray:none;stroke-opacity:1"
         id="path78" />
      <path
         d="m 6133.18,-97.5 c 153.25,543.602 383.95,1058.301 769.4,1481.4 349.53,383.7 823.67,443.6 1332,339.6 692.1,-141.6 1360.24,-363.5 2039.92,-546.5 575.3,-154.9 1156.8,-294.699 1689.2,-569 325.9,-167.898 607.3,-380.199 778.5,-705.5 -445.7,0 -891.4,0 -1337,0 -659.4,256.402 -1308.8,541.898 -2018.04,655.402 -356.29,57 -710.04,142 -1076.94,66.7 -355.49,-73 -658.4,-224.301 -872.25,-514 -64.22,-87.0004 -136.1,-160.3012 -235.11,-208.102 -356.56,0 -713.12,0 -1069.68,0 z"
         style="fill:none;stroke:#0D0D0D;stroke-width:40;stroke-linecap:butt;stroke-linejoin:miter;stroke-miterlimit:4;stroke-dasharray:none;stroke-opacity:1"
         id="path80" />
      <path
         d="m -93.8477,12178.3 c 102.99614,125.6 222.4997,231.9 362.6567,320.4 524.886,331.5 1033.561,237.1 1348.731,-281.5 410.5,-675.4 450.01,-1375.8 72.34,-2079.8 -308.7,-575.3 -996.911,-820.1 -1622.8839,-587.8 -53.1875,19.7 -107.2109,37.3 -160.8438,55.9 0,857.6 0,1715.2 0,2572.8 z"
         style="fill:none;stroke:#0D0D0D;stroke-width:40;stroke-linecap:butt;stroke-linejoin:miter;stroke-miterlimit:4;stroke-dasharray:none;stroke-opacity:1"
         id="path82" />
      <path
         d="m 48079.7,9274.8 c -129.4,141.6 -256.4,285.3 -388.7,424.5 -304.7,320.6 -634.5,618.5 -983.8,890.9 -684.3,533.7 -970.6,1208 -826.8,2039.8 111.8,646 323.5,1256.1 788.9,1759.9 339.3,367.4 760.1,624.6 1205.9,850.6 67.4,34.2 136.3,65.9 204.5,98.7 0,-257.3 0,-514.6 0,-771.9 -84.8,-194.1 -286.9,-270.1 -436.4,-398.5 -662.1,-568.4 -951.4,-1267 -804.1,-2117.9 66.7,-385.5 305.4,-682.1 572,-955.9 178.1,-182.9 335.9,-383.8 529,-553.1 73.8,-64.7 85.6,-162.7 139.5,-238 0,-343.1 0,-686.1 0,-1029.1 z"
         style="fill:none;stroke:#0D0D0D;stroke-width:40;stroke-linecap:butt;stroke-linejoin:miter;stroke-miterlimit:4;stroke-dasharray:none;stroke-opacity:1"
         id="path84" />
      <path
         d="m 14117.5,20080.5 c -79.6,-789 -424.9,-1403.6 -1192.9,-1773.2 -617.3,-297.1 -1248,-517.3 -1948.1,-505.6 -635.3,10.5 -1209.76,209.2 -1738.81,534.5 -747.88,459.8 -1371.26,1046.4 -1882.02,1744.3 318.35,0 636.71,0 955.07,0 114.04,-60.5 194.25,-151.8 267.67,-253.9 381.82,-531 878.17,-930 1492.99,-1192.6 773.7,-330.4 1498.9,-221.6 2195.3,208.8 363,224.3 595.2,545.2 765.8,915.3 53.9,116.9 89.1,243.6 206.4,322.4 292.9,0 585.8,0 878.6,0 z"
         style="fill:none;stroke:#0D0D0D;stroke-width:40;stroke-linecap:butt;stroke-linejoin:miter;stroke-miterlimit:4;stroke-dasharray:none;stroke-opacity:1"
         id="path86" />
      <path
         d="m 31729,-97.5 c 453.4,344 938.1,649 1367.6,1023 287.4,250.3 560.1,513.6 820.8,789.9 246.8,261.5 483.2,534.7 830.5,689 369.7,164.3 768.2,40.1 977,-299.3 253,-411.5 281.8,-868.2 320.9,-1324.901 25.2,-294.097 -49,-584.199 -38.1,-877.699 -242,0 -483.9,0 -725.9,0 -83.9,66.6016 -114.8,157.1992 -128.5,256.801 -20,145.801 -55.5,288 -121.2,421.601 -118.2,240.399 -296.6,317.598 -560.7,229.598 -265,-88.199 -504.6,-227.301 -740.7,-370.898 -166.1,-101 -337.7,-194.301 -498.2,-303 -168,-113.9028 -355,-179.1997 -548.5,-234.102 -318.3,0 -636.7,0 -955,0 z"
         style="fill:none;stroke:#0D0D0D;stroke-width:40;stroke-linecap:butt;stroke-linejoin:miter;stroke-miterlimit:4;stroke-dasharray:none;stroke-opacity:1"
         id="path88" />
      <path
         d="m 48079.7,10303.9 c -409.5,357.2 -803.5,733.6 -1101,1181.1 -404.6,608.7 -344.1,1258.2 -66,1895.4 232.2,532 648.5,909 1167,1186.9 0,-588 0,-1176.1 0,-1764.1 -31.5,-147.1 -31.5,-294.1 0,-441.1 0,-686.1 0,-1372.2 0,-2058.2 z"
         style="fill:none;stroke:#0D0D0D;stroke-width:40;stroke-linecap:butt;stroke-linejoin:miter;stroke-miterlimit:4;stroke-dasharray:none;stroke-opacity:1"
         id="path90" />
      <path
         d="m 13238.9,20080.5 c -176.2,-697.6 -596.8,-1200.7 -1275.9,-1506.8 -928.5,-418.3 -1767.6,-217.4 -2561.9,326 -457.8,313.1 -828.32,700.5 -1090.36,1180.8 305.62,0 611.24,0 916.86,0 248.86,-140.2 396.44,-388.3 634.77,-542.9 289.23,-187.7 594.43,-340.9 943.83,-354.8 568.4,-22.6 1017.5,211.7 1336.8,663 70.2,99.2 144.8,181.9 255.4,234.7 280.2,0 560.3,0 840.5,0 z"
         style="fill:none;stroke:#0D0D0D;stroke-width:40;stroke-linecap:butt;stroke-linejoin:miter;stroke-miterlimit:4;stroke-dasharray:none;stroke-opacity:1"
         id="path92" />
      <path
         d="m 20573.8,20080.5 c -408.9,-787.8 -1252.8,-1247.7 -2175.5,-1171.5 -262.5,21.7 -486.9,128.4 -617.5,371.7 -135.6,252.7 -220.8,519.4 -263.2,799.8 1018.7,0 2037.4,0 3056.2,0 z"
         style="fill:none;stroke:#0D0D0D;stroke-width:40;stroke-linecap:butt;stroke-linejoin:miter;stroke-miterlimit:4;stroke-dasharray:none;stroke-opacity:1"
         id="path94" />
      <path
         d="m 7202.86,-97.5 c 333.57,636.801 932.87,917.5 1687.11,821.199 781.58,-99.898 1532.93,-286.297 2237.23,-632.8982 101.6,-50 205.3,-98.3008 278,-188.3008 -1400.8,0 -2801.58,0 -4202.34,0 z"
         style="fill:none;stroke:#0D0D0D;stroke-width:40;stroke-linecap:butt;stroke-linejoin:miter;stroke-miterlimit:4;stroke-dasharray:none;stroke-opacity:1"
         id="path96" />
      <path
         d="m 12398.4,20080.5 c -175.8,-341 -412,-628.4 -769.6,-809.7 -436.3,-221.1 -883.4,-248.7 -1338.3,-62.4 -447.81,183.5 -821.24,454.3 -1062.9,872.1 458.43,0 916.9,0 1375.3,0 140.1,-29.2 280.1,-29.2 420.2,0 458.5,0 916.9,0 1375.3,0 z"
         style="fill:none;stroke:#0D0D0D;stroke-width:40;stroke-linecap:butt;stroke-linejoin:miter;stroke-miterlimit:4;stroke-dasharray:none;stroke-opacity:1"
         id="path98" />
      <path
         d="m 32684,-97.5 c 544,339.203 1074.4,701.301 1666,962.801 396.2,174.999 656.9,62.699 807.4,-334.102 76.7,-202.199 110.9,-414 124.4,-628.699 -865.9,0 -1731.8,0 -2597.8,0 z"
         style="fill:none;stroke:#0D0D0D;stroke-width:40;stroke-linecap:butt;stroke-linejoin:miter;stroke-miterlimit:4;stroke-dasharray:none;stroke-opacity:1"
         id="path100" />
      <path
         d="m 22522.1,-97.5 c 42.5,374.102 107.3,738.402 418.4,1011.199 87.2,76.5 171.1,161.701 297.3,114.301 128.8,-48.398 222.1,-139.898 242.3,-281.199 40.3,-283.102 63.4,-568.899 149.9,-844.301 -369.3,0 -738.6,0 -1107.9,0 z"
         style="fill:none;stroke:#0D0D0D;stroke-width:40;stroke-linecap:butt;stroke-linejoin:miter;stroke-miterlimit:4;stroke-dasharray:none;stroke-opacity:1"
         id="path102" />
      <path
         d="m 1472.46,20080.5 c -66.54,-104.2 -146.16,-197.6 -236.63,-284.1 -481.416,-460.5 -995.092,-341.2 -1215.0683,284.1 483.9023,0 967.7973,0 1451.6983,0 z"
         style="fill:none;stroke:#0D0D0D;stroke-width:40;stroke-linecap:butt;stroke-linejoin:miter;stroke-miterlimit:4;stroke-dasharray:none;stroke-opacity:1"
         id="path104" />
      <path
         d="m 48079.7,18720.6 c -103.5,463.7 -275.4,907.9 -420.2,1359.9 140,0 334.8,52.6 404.8,-14.8 70.1,-67.4 15.4,-254.8 15.4,-389.5 0,-318.6 0,-637.1 0,-955.6 z"
         style="fill:none;stroke:#0D0D0D;stroke-width:40;stroke-linecap:butt;stroke-linejoin:miter;stroke-miterlimit:4;stroke-dasharray:none;stroke-opacity:1"
         id="path106" />
      <path
         d="m 22636.2,10343.4 c 21.6,-661.9 -162.9,-1252.8 -272.5,-1854.1 -112,-614.4 -207.1,-1232.2 -342,-1842 -293.2,-1324.8 -1008.5,-2384 -2228.3,-3086.5 -942.9,-543 -1933.1,-534.4 -2934.1,-142 -336.5,131.9 -676.6,264.5 -943,509.4 -427.7,393.3 -584.3,909.3 -648.3,1453.7 -79.3,674.3 55.2,1310.2 394.6,1909.6 256.6,453 650.7,777.4 1050.7,1099.9 454.2,366.1 907.9,731.5 1159,1270.2 198,424.9 273,877 332.1,1333 53.4,412.1 88.4,826.8 157.1,1236.4 74,441.7 311,578.2 771.4,517.5 675.1,-89.1 1348.1,-183.7 1991.2,-410.9 672.6,-237.6 1219.8,-604.3 1435.4,-1309.9 73,-239.2 85.9,-481.1 76.7,-684.3 z"
         style="fill:none;stroke:#0D0D0D;stroke-width:40;stroke-linecap:butt;stroke-linejoin:miter;stroke-miterlimit:4;stroke-dasharray:none;stroke-opacity:1"
         id="path108" />
      <path
         d="m 22151.2,13829.2 c -537.2,37.2 -1067.7,103.1 -1481.4,483 -492.2,451.9 -405.7,1127.4 202.5,1418.4 768.5,367.8 1977,-85.1 2188.9,-896.9 121.8,-466.9 48.1,-708.7 -314.2,-907.3 -180.6,-99 -390,-99.4 -595.8,-97.2 z"
         style="fill:none;stroke:#0D0D0D;stroke-width:40;stroke-linecap:butt;stroke-linejoin:miter;stroke-miterlimit:4;stroke-dasharray:none;stroke-opacity:1"
         id="path110" />
      <path
         d="m 30961.7,5815.1 c -787.9,17.8 -1375.6,378.2 -1811.9,990.8 -469.7,659.5 -826.9,1376.9 -1146,2112.1 -272,626.7 -521.8,1262.5 -802.5,1885.6 -218.1,483.9 -541.8,913.3 -827.1,1361.8 -350.6,551.4 -613.2,1134.9 -637.5,1786 -31.4,841.5 288.9,1547.6 951.9,2111.5 750.4,638.3 1576.6,1162.6 2503.7,1523.1 1169.2,454.7 2316.5,380.4 3413.1,-228.5 595.3,-330.6 942.1,-927.9 744.7,-1766 -101.3,-429.8 -213.9,-857.1 -319.7,-1285.9 -260.3,-1054.6 -187.3,-2100.3 88,-3141.7 167.6,-634.4 362.5,-1261.7 493.2,-1905.8 160.2,-788.6 -66.4,-1486.8 -481.7,-2151.1 -298.7,-477.8 -683.7,-862.4 -1223.3,-1094.5 -302.6,-130.1 -613.2,-197.8 -944.9,-197.4 z"
         style="fill:none;stroke:#0D0D0D;stroke-width:40;stroke-linecap:butt;stroke-linejoin:miter;stroke-miterlimit:4;stroke-dasharray:none;stroke-opacity:1"
         id="path112" />
      <path
         d="m 47466.2,4996.7 c -35,-963 -273.2,-1876.5 -756.2,-2722.1 -323.9,-567.2 -868.7,-709.4 -1481,-433.2 -960.7,433.4 -1480.4,1200.9 -1770.2,2141.4 -280.4,909.8 -298.2,1846.9 -261.3,2784 15.1,382.4 66.1,766.1 218.7,1130.9 148.5,354.9 432.5,537.5 802.6,560.6 754.1,47.2 1413.7,-199 1968.2,-690.8 742.2,-658.3 1149.1,-1482 1272.9,-2440.6 2.4,-18.2 5.9,-36.5 6,-54.7 0.6,-91.8 0.3,-183.7 0.3,-275.5 z"
         style="fill:none;stroke:#0D0D0D;stroke-width:40;stroke-linecap:butt;stroke-linejoin:miter;stroke-miterlimit:4;stroke-dasharray:none;stroke-opacity:1"
         id="path114" />
      <path
         d="m 11438.3,15192.2 c 854.6,54.3 1578.8,-331.7 2143.6,-1040.6 506.8,-636.2 907.7,-1325.9 1193,-2080.7 280.1,-741.2 234.7,-1458.4 -151.4,-2147.6 -570.5,-1018.2 -998.3,-2090 -1358.9,-3190.8 -127.9,-390.5 -297.7,-766.5 -547.3,-1106.8 -532,-725.3 -1376,-795.9 -2109.1,-486.7 -512.8,216.4 -945.34,549.1 -1362.09,901.9 -608.26,515 -1232.27,1008.8 -2005.04,1284.4 -438.25,156.3 -894.68,243.9 -1361.29,255.9 -502.62,12.8 -1005.89,0.6 -1508.84,3.9 -339.93,2.2 -504.45,147.3 -488.09,475.1 60.3,1208.1 217.58,2401.9 668.93,3541.5 269.83,681.3 785.92,1163 1414.48,1541.2 421.23,253.4 866.81,465.7 1315.28,670.5 535.44,244.4 1034.07,553.7 1563.26,808.6 808.1,389.2 1603.4,570.2 2593.5,570.2 z"
         style="fill:none;stroke:#0D0D0D;stroke-width:40;stroke-linecap:butt;stroke-linejoin:miter;stroke-miterlimit:4;stroke-dasharray:none;stroke-opacity:1"
         id="path116" />
      <path
         d="m 37344.7,11333.8 c -10.4,-282.8 -44.3,-707.5 -247.5,-1102 -207.7,-403.4 -545.5,-488.5 -936.4,-268.7 -909,511 -1738.2,1821.6 -1373.6,3016.4 181.4,594.8 798.9,1029.9 1488.7,700.8 321.4,-153.4 545.4,-416.7 715,-715.6 247.7,-436.5 353.8,-909.7 353.8,-1630.9 z"
         style="fill:none;stroke:#0D0D0D;stroke-width:40;stroke-linecap:butt;stroke-linejoin:miter;stroke-miterlimit:4;stroke-dasharray:none;stroke-opacity:1"
         id="path118" />
      <path
         d="m 41588.2,18207.7 c 456.6,7.2 660.4,-210.9 636,-722.5 -34,-713 -227.5,-1398.5 -566.5,-2039 -77.1,-145.7 -160.5,-289.3 -304.8,-392.2 -258.2,-184.2 -528.1,-130.2 -814.1,186.9 -341.7,378.8 -559.8,839.2 -588.2,1347.8 -29.5,528.3 186.4,972.4 648.8,1273.5 295.2,192.2 618.7,338.4 988.8,345.5 z"
         style="fill:none;stroke:#0D0D0D;stroke-width:40;stroke-linecap:butt;stroke-linejoin:miter;stroke-miterlimit:4;stroke-dasharray:none;stroke-opacity:1"
         id="path120" />
      <path
         d="m 41357.1,1518.4 c -14.7,-253.1 23.2,-528.701 -39.5,-802.298 -66.3,-289.399 -222.5,-515.801 -510,-618.6997 -329.1,-117.8007 -619.9,-9.5 -880.3,203.8987 -441.5,361.699 -625.8,860.299 -763.2,1370.499 -306.3,1136.8 -744.6,2222.9 -1268.6,3281.1 -155.9,314.9 -253.2,649.7 -248.2,1009.7 8.5,614.2 392.5,954.9 994.7,947.8 691.7,-8.2 1277.8,-280 1728.8,-804.3 356.9,-414.9 519.9,-908.2 640.4,-1416.9 179.8,-758.8 238.3,-1533.8 312.8,-2306.8 27.1,-281.6 26.2,-561.7 33.1,-864 z"
         style="fill:none;stroke:#0D0D0D;stroke-width:40;stroke-linecap:butt;stroke-linejoin:miter;stroke-miterlimit:4;stroke-dasharray:none;stroke-opacity:1"
         id="path122" />
      <path
         d="m 21912.9,10110.8 c 1.3,-481 -108.9,-897.6 -250.7,-1303.2 -268.3,-767.5 -484.7,-1545.9 -631.8,-2343.5 -127.3,-690 -404.3,-1330.9 -921.5,-1824.1 -572.5,-545.9 -1264.5,-873.9 -2109.3,-670.2 -918.7,221.6 -1616.7,702 -1859.9,1627.2 -200.1,761.8 110.6,1378.3 698.3,1879.6 394.4,336.4 865.2,579.3 1236.3,948.6 310.5,308.9 515.7,662.4 629,1073.3 124,449.4 208.2,909.1 371.7,1348.5 161.5,434 423.5,758.3 929.8,853.9 631.9,119.4 1680.1,-233.5 1862.9,-1199.1 27.5,-144.9 54.9,-289.1 45.2,-391 z"
         style="fill:none;stroke:#0D0D0D;stroke-width:40;stroke-linecap:butt;stroke-linejoin:miter;stroke-miterlimit:4;stroke-dasharray:none;stroke-opacity:1"
         id="path124" />
      <path
         d="m 30478,17325.4 c 595.8,9 1108.2,-147.9 1538.6,-490.7 544.3,-433.6 683.9,-1022.2 611.4,-1674.1 -82.4,-740.9 -229.2,-1474.4 -215.9,-2225.9 13.8,-783 177.5,-1542.3 330.1,-2305 98.6,-492.9 202.3,-986.6 169.5,-1492.3 -56.3,-869.2 -571.6,-1743.9 -1520.4,-2094.1 -684.4,-252.6 -1369.6,32.1 -1862.2,598 -600.3,689.5 -993.6,1492.8 -1294.5,2336.8 -324.9,911.6 -713,1792.2 -1209.5,2632.2 -273.6,462.8 -463.5,962.3 -457.8,1517.1 6.3,622.3 253.8,1147.6 664.7,1601.3 561.2,619.7 1257.3,1067.4 2049.8,1372.1 393.1,151.1 802.3,236.6 1196.2,224.6 z"
         style="fill:none;stroke:#0D0D0D;stroke-width:40;stroke-linecap:butt;stroke-linejoin:miter;stroke-miterlimit:4;stroke-dasharray:none;stroke-opacity:1"
         id="path126" />
      <path
         d="m 43605.6,5643.1 c 19.2,461.5 71.9,925.3 233.1,1377.1 270.5,758.2 1001.5,878.2 1585.8,614.8 688.2,-310.2 1095.8,-842.5 1338.3,-1503.3 388.1,-1057.4 193.5,-2054.7 -439.1,-2967.8 -397.6,-573.7 -1049.4,-647.3 -1629,-240.8 -457.8,321.2 -712,773.6 -871.8,1280.5 -146.5,464.8 -201.4,944.6 -217.3,1439.5 z"
         style="fill:none;stroke:#0D0D0D;stroke-width:40;stroke-linecap:butt;stroke-linejoin:miter;stroke-miterlimit:4;stroke-dasharray:none;stroke-opacity:1"
         id="path128" />
      <path
         d="m 4643.29,9615.5 c -5.58,793.6 186.39,1532.2 697.76,2167.6 444.17,551.9 1048.11,905.1 1703.17,1178.4 824.35,343.9 1614.84,752 2411.24,1149.6 737.04,368 1507.94,581.3 2352.04,459.9 564.7,-81.2 985.8,-384.1 1334.4,-788.9 557.3,-647.1 894.6,-1393 1000.6,-2228.4 62.9,-495.3 -28.6,-979.4 -193.5,-1446.1 -380.9,-1078.4 -704.8,-2175.4 -1132.3,-3238.4 -140.6,-349.8 -343.4,-661.7 -618.6,-939 -365.9,-368.5 -803.8,-424.5 -1280.4,-337.9 -517.2,93.9 -919.37,406.7 -1324.01,704.4 -353.49,260 -696.96,532.6 -1049.98,793.3 -713.97,527.1 -1540.78,798.1 -2410.24,968.4 -218.68,42.9 -432.45,101.2 -645.1,166.2 -507.84,155.3 -877.96,592.2 -845.79,1133.7 5.08,85.5 0.71,171.5 0.71,257.2 z"
         style="fill:none;stroke:#0D0D0D;stroke-width:40;stroke-linecap:butt;stroke-linejoin:miter;stroke-miterlimit:4;stroke-dasharray:none;stroke-opacity:1"
         id="path130" />
      <path
         d="m 36541.8,11900.4 c 3.5,-237.2 -29.4,-396.3 -162.9,-520.8 -109,-101.6 -321.5,-120.1 -439,-30.6 -311.1,237.1 -465.2,543.4 -424.7,930.2 19.7,188.4 132.6,327.6 302.6,393.4 178.2,69 335,-24.4 459.6,-150 190.3,-191.8 255.1,-431.3 264.4,-622.2 z"
         style="fill:none;stroke:#0D0D0D;stroke-width:40;stroke-linecap:butt;stroke-linejoin:miter;stroke-miterlimit:4;stroke-dasharray:none;stroke-opacity:1"
         id="path132" />
      <path
         d="m 40435.2,3728.7 c 26.4,-192.6 -27.5,-378.3 -43.5,-566.6 -9.9,-116.6 -60,-224 -152.2,-308.5 -115.8,-106.2 -232.2,-113.2 -354.1,-10 -164.1,138.9 -293.2,303.3 -396.9,488.1 -281,501 -550,1007.1 -671.1,1570.4 -37,172.1 -68.8,346.9 -17,525 55,188.7 209.3,314.2 413.1,318.2 206.5,4.1 380.2,-68.6 537.2,-198.3 418.1,-345.4 578.3,-807.3 646.1,-1309.4 22.8,-168.7 64.7,-337.5 38.4,-508.9 z"
         style="fill:none;stroke:#0D0D0D;stroke-width:40;stroke-linecap:butt;stroke-linejoin:miter;stroke-miterlimit:4;stroke-dasharray:none;stroke-opacity:1"
         id="path134" />
      <path
         d="m 19578.6,6225.6 c 1.9,-661.7 -328.5,-1107.9 -909.4,-1230.7 -571.2,-120.7 -1272.4,351.7 -1337.3,906.7 -38.1,326.1 99.8,589.6 360.5,786.5 337.9,255.2 732.9,390.2 1155.1,448 364.4,49.8 696.2,-267.4 730.2,-690.3 5.9,-72.9 0.9,-146.8 0.9,-220.2 z"
         style="fill:none;stroke:#0D0D0D;stroke-width:40;stroke-linecap:butt;stroke-linejoin:miter;stroke-miterlimit:4;stroke-dasharray:none;stroke-opacity:1"
         id="path136" />
      <path
         d="m 19848.3,9605.6 c -11.4,246.1 60.1,472.3 185.4,683.3 95.2,160.4 236.1,255.5 436.2,243.9 194.8,-11.3 308,-123.9 381.8,-288.3 198.8,-443.1 -85.6,-1107.7 -550.6,-1284.5 -158.4,-60.2 -259.5,20.4 -334.7,133.8 -102.3,154.4 -125.8,331 -118.1,511.8 z"
         style="fill:none;stroke:#0D0D0D;stroke-width:40;stroke-linecap:butt;stroke-linejoin:miter;stroke-miterlimit:4;stroke-dasharray:none;stroke-opacity:1"
         id="path138" />
      <path
         d="m 32072.8,14825.6 c -29.5,-367.9 -71.6,-860.7 -107.6,-1353.9 -32.7,-446.8 -1.4,-893.1 46.7,-1336.6 72.4,-668.2 205.5,-1332.5 237,-2001.7 28.6,-607 -105.1,-1202.4 -598.9,-1646.5 -367.6,-330.7 -860.4,-452.2 -1372.7,-209 -533.1,253 -848.2,685.9 -1118,1164.6 -283.4,502.9 -464.7,1045.2 -657.1,1583.6 -244.8,684.9 -585.2,1328.9 -923.5,1973.9 -173,330 -292.7,677 -319.8,1049.9 -43.9,605.5 189.8,1124 586.6,1565.8 555.9,618.9 1253.5,1029.2 2102,1178.2 828.5,145.5 1634.2,-218.1 1937.7,-875.4 120.5,-261.1 187.6,-606.9 187.6,-1092.9 z"
         style="fill:none;stroke:#0D0D0D;stroke-width:40;stroke-linecap:butt;stroke-linejoin:miter;stroke-miterlimit:4;stroke-dasharray:none;stroke-opacity:1"
         id="path140" />
      <path
         d="m 46283.9,5142.1 c -2.5,-352.8 -116.8,-740.3 -364.5,-1064.5 -379.5,-496.7 -922.9,-538.4 -1303.3,1.4 -549.8,780.1 -564.3,1625.2 -92.9,2462.3 116,206 457.3,338 693.7,277.9 286.6,-72.9 523.6,-218.9 683.4,-464.9 229.4,-353.5 379.6,-732.1 383.6,-1212.2 z"
         style="fill:none;stroke:#0D0D0D;stroke-width:40;stroke-linecap:butt;stroke-linejoin:miter;stroke-miterlimit:4;stroke-dasharray:none;stroke-opacity:1"
         id="path142" />
      <path
         d="m 13168.1,11116.9 c -57.4,-1270.4 -250.7,-2516.8 -736.2,-3709.7 -102.8,-252.4 -243.4,-484.9 -425.3,-692.5 -413.2,-471.4 -966.2,-569.9 -1584.9,-294.3 -408.6,182.1 -765.36,440.1 -1109.03,710.6 -778.82,612.8 -1648.71,1053.5 -2601.6,1355.3 -282.22,89.4 -558.38,194.2 -809.5,362 -496.85,332.1 -622.53,798 -559.53,1336.2 98.75,843.8 616.91,1410.6 1339.94,1834.2 464.74,272.3 978.88,437.9 1483.07,624.6 677.17,250.6 1324.9,565.6 1989.85,842.9 399.2,166.4 814.9,291.4 1255.6,258.2 811.4,-60.9 1243.5,-578.2 1525.9,-1240 187.9,-440.3 256.5,-907.8 231.7,-1387.5 z"
         style="fill:none;stroke:#0D0D0D;stroke-width:40;stroke-linecap:butt;stroke-linejoin:miter;stroke-miterlimit:4;stroke-dasharray:none;stroke-opacity:1"
         id="path144" />
      <path
         d="m 31423.4,14397.6 c -13.6,-629.1 -102.5,-1256.9 -71.4,-1886.1 26.3,-532.1 30.9,-1063.6 33.4,-1595.6 1.3,-256.1 -74.7,-492.4 -172.7,-728 -211,-507.3 -742.3,-558.4 -1166.1,-197.9 -308.6,262.5 -470.4,614 -612.1,963.1 -331.9,817.7 -751.6,1593.6 -1149.2,2380.8 -212.8,421.5 -315.8,864.7 -179,1333.8 262.9,902 1220.3,1483.1 2000,1483.7 730.7,0.6 1102.9,-387.5 1272.4,-1132.5 46.5,-204.4 54.3,-412.4 44.7,-621.3 z"
         style="fill:none;stroke:#0D0D0D;stroke-width:40;stroke-linecap:butt;stroke-linejoin:miter;stroke-miterlimit:4;stroke-dasharray:none;stroke-opacity:1"
         id="path146" />
      <path
         d="m 12245.6,9461.9 c 27,-452.3 -51.4,-955.5 -223.9,-1449.5 -115.7,-331.5 -317.7,-600.1 -590.3,-817.9 -232.7,-185.9 -516.5,-191.2 -799.3,-139.1 -458.8,84.4 -827.87,344.8 -1186.96,605.4 -706,512.4 -1480.29,903.9 -2281.26,1253.1 -341.73,148.9 -635.35,359.9 -872.85,638.1 -240.69,282 -214.83,908.1 37.07,1249.3 374.91,507.9 906.51,796.1 1504.1,982.2 884.01,275.3 1777.83,525 2701.5,636.7 670.5,81.2 1085.3,-156 1367.4,-857.4 249.5,-620.3 344.5,-1260.1 344.5,-2100.9 z"
         style="fill:none;stroke:#0D0D0D;stroke-width:40;stroke-linecap:butt;stroke-linejoin:miter;stroke-miterlimit:4;stroke-dasharray:none;stroke-opacity:1"
         id="path148" />
      <path
         d="m 30613.5,14247.8 c -28.4,-400.6 -80.4,-781.8 -269.5,-1131.1 -131.8,-243.3 -280.1,-291.5 -528,-163.9 -472.1,243 -659.5,677.5 -793.4,1136.7 -128.8,441.7 192.6,1079 826,1155.4 164,19.7 452.6,-107.2 546.1,-244.7 158.8,-233.7 202,-497.4 218.8,-752.4 z"
         style="fill:none;stroke:#0D0D0D;stroke-width:40;stroke-linecap:butt;stroke-linejoin:miter;stroke-miterlimit:4;stroke-dasharray:none;stroke-opacity:1"
         id="path150" />
      <path
         d="m 11137.2,9083.6 c 3.7,-114.2 -1.6,-235.3 -35.8,-355.2 -101.7,-356.1 -405.8,-537.8 -784.4,-468.8 -295.5,53.9 -545.84,203.3 -786.12,360.9 -487.95,320.1 -1002.01,603.8 -1464.14,959.7 -163.54,126 -330.12,256.4 -362.66,475.7 -38.43,259.2 158.11,530.4 489.06,642 608.2,205 1222.69,219.2 1827.76,-9.5 552.8,-208.9 1163.2,-908.3 1116.3,-1604.8 z"
         style="fill:none;stroke:#0D0D0D;stroke-width:40;stroke-linecap:butt;stroke-linejoin:miter;stroke-miterlimit:4;stroke-dasharray:none;stroke-opacity:1"
         id="path152" />
    </g>
  </g>
</svg>
